<?xml version="1.0" encoding="UTF-8" standalone="no"?>
<svg
   xmlns:dc="http://purl.org/dc/elements/1.1/"
   xmlns:cc="http://creativecommons.org/ns#"
   xmlns:rdf="http://www.w3.org/1999/02/22-rdf-syntax-ns#"
   xmlns:svg="http://www.w3.org/2000/svg"
   xmlns="http://www.w3.org/2000/svg"
   id="svg4"
   style="clip-rule:evenodd;fill-rule:evenodd;stroke-linejoin:round;stroke-miterlimit:2"
   xml:space="preserve"
   version="1.1"
   viewBox="0 0 54.261375 54.328987"
   height="54.328987"
   width="54.261375"><metadata
     id="metadata10"><rdf:RDF><cc:Work
         rdf:about=""><dc:format>image/svg+xml</dc:format><dc:type
           rdf:resource="http://purl.org/dc/dcmitype/StillImage" /></cc:Work></rdf:RDF></metadata><defs
     id="defs8" /><path
     id="path2"
     style="fill:#9ccd63"
     d="m 7.8978886,10.397812 c 0,0 -1.832,1.916 -3.149,3.294 -0.263,0.275 -0.655,0.384 -1.022,0.285 -0.367,-0.1 -0.65,-0.392 -0.737,-0.762 -0.775,-3.2660004 -2.35899998,-9.9410004 -2.97499998,-12.53800044 -0.048,-0.202 0.022,-0.415 0.182,-0.548 0.159,-0.134 0.38,-0.166 0.571,-0.084 C 3.1728886,1.0858116 9.2488886,3.7148116 11.894889,4.8608116 c 0.28,0.121 0.48,0.374 0.532,0.674 0.052,0.301 -0.051,0.607 -0.273,0.815 -1.271,1.19 -3.2950004,3.086 -3.2950004,3.086 l 2.4970004,2.4240004 c 2.842,-2.1640004 6.845,-4.3950004 8.703,-5.3930004 0.647,-0.345 1.411,-0.391 2.094,-0.127 2.517,0.938 9.045,3.171 15.041,3.577 2.405,0.8420004 7.106,-4.867 9.187,-7.603 0.205,-0.272 0.543,-0.408 0.878,-0.354 0.336,0.053 0.615,0.287 0.726,0.609 0.192,0.559 0.359,1.043 0.359,1.043 0,0 0.889,4.985 0,8.1060004 -0.222,0.37 -0.442,0.721 -0.655,1.051 0.548,-0.089 1.159,-0.174 1.838,-0.248 4.227,-0.464 6.859,-0.155 2.473,1.855 -2.123,0.973 -3.237,1.33 -4.066,1.369 0.433,0.188 0.9,0.403 1.401,0.647 3.801,1.852 5.831,3.505 1.024,2.864 -4.806,-0.641 -4.524,-1.201 -5.979,-2.86 -0.01,-0.013 -0.021,-0.025 -0.031,-0.037 l -13.698,14.24 1.279,1.241 7.802,-0.555 3.603,2.61 -1.211,1.783 3.976,0.221 1.39,1.007 -6.294,4.589 -3.453,6.548 -3.892,-4.007 -0.569,-4.248 -1.914,1.782 -2.191,-2.224 1.21,-5.874 -1.258,-1.291 -11.983,12.457 c -0.003,0.038 -0.006,0.076 -0.009,0.113 0.26,0.818 0.646,2.407 0.825,5.007 0.282,4.115 -0.158,6.649 -2.027,2.308 -0.627,-1.456 -0.971,-2.43 -1.124,-3.158 -0.33,0.518 -0.722,1.095 -1.187,1.731 -2.461,3.364 -4.4530004,5.059 -3.075,0.55 0.275,-0.9 0.517,-1.607 0.742,-2.17 -3.9250004,0.417 -8.4740004,0.527 -8.4740004,0.527 0,0 -0.348,-0.338 -0.743,-0.721 -0.255,-0.247 -0.377,-0.6 -0.33,-0.951 0.047,-0.352 0.259,-0.66 0.57,-0.831 2.511,-1.312 7.612,-4.455 8.0950004,-8.154 0.324,-5.214 -3.0650004,-12.785 -4.3350004,-15.418 -0.294,-0.599 -0.3,-1.298 -0.018,-1.903 0.828,-1.78 2.704,-5.656 4.4710004,-8.472 z m 8.3370004,8.553 c -1.617,1.734 -2.986,3.701 -3.967,5.89 0.174,3.451 0.769,6.692 0.769,6.692 0,0 2.781,3.37 3.898,4.723 0.296,0.358 0.459,0.808 0.46,1.272 0,0.74 -0.009,1.981 -0.052,3.397 l 9.989,-10.447 z m 25.411,-2.864 c 0,0 -3.72,0.079 -5.447,0.116 -0.552,0.012 -1.086,-0.198 -1.482,-0.582 -1.058,-1.025 -3.097,-3.002 -3.097,-3.002 0,0 -3.162,-0.366 -7.382,0.386 -2.415,1.238 -4.764,2.828 -6.811,4.751 l 11.411,11.208 z" /></svg>