<?xml version="1.0" encoding="UTF-8" standalone="no"?>
<svg
   xmlns:dc="http://purl.org/dc/elements/1.1/"
   xmlns:cc="http://creativecommons.org/ns#"
   xmlns:rdf="http://www.w3.org/1999/02/22-rdf-syntax-ns#"
   xmlns:svg="http://www.w3.org/2000/svg"
   xmlns="http://www.w3.org/2000/svg"
   id="svg3"
   style="clip-rule:evenodd;fill-rule:evenodd;stroke-linejoin:round;stroke-miterlimit:2"
   xml:space="preserve"
   version="1.1"
   viewBox="0 0 54.009857 53.642155"
   height="53.642155"
   width="54.009857"><metadata
     id="metadata9"><rdf:RDF><cc:Work
         rdf:about=""><dc:format>image/svg+xml</dc:format><dc:type
           rdf:resource="http://purl.org/dc/dcmitype/StillImage" /></cc:Work></rdf:RDF></metadata><defs
     id="defs7" /><path
     style="fill:#2a8eda"
     d="m 21.164208,11.663 c 0.094,0.382 0.399,0.685 0.797,0.792 0.399,0.107 0.827,10e-4 1.118,-0.277 1.12,-0.878 1.48,-1.718 2.067,-3.386 -1.67,-3.961 -3.278,-7.399 -4.727,-8.792 -4.119,0.608 -15.8459998,5.454 -19.48499977,7.502 -0.413,0.261 -0.697,0.669 -0.786,1.132 -0.717,4.734 1.41399997,11.645 1.16099997,18.991 -0.029,0.683 0.351,1.324 0.983,1.655 3.304,1.728 6.345,2.692 9.4739998,3.059 5.259,-0.527 4.741,-4.51 12.424,-5.434 4.074,0.165 4.778,0 4.778,0 0,0 -0.207,0.394 -0.429,0.814 -0.32,0.606 -0.231,1.334 0.227,1.854 0.89,1.012 2.362,2.687 3.258,3.706 0.486,0.552 1.206,0.872 1.965,0.872 0.385,0 0.713,0 0.713,0 v 5.942 c 0,0.766 0.551,1.434 1.335,1.619 1.103,0.262 2.488,0.59 2.488,0.59 l 3.823,3.623 c 0,0 -1.144,2.312 -1.414,3.335 -0.212,0.803 0.212,1.635 1.007,1.977 1.926,0.83 6.25,1.239 8.315,2.128 1.025,0.442 2.219,0.351 3.156,-0.242 10e-4,0 10e-4,0 0.002,-10e-4 0.333,-0.21 0.55,-0.552 0.589,-0.93 0.04,-0.378 -0.102,-0.753 -0.385,-1.021 -1.675,-1.587 -4.58,-4.341 -4.58,-4.341 l -3.823,-9.057 -0.956,-3.622 c 0,0 0.375,-0.355 0.792,-0.751 0.619,-0.586 0.618,-1.536 0,-2.121 -1.128,-1.069 -2.703,-2.562 -2.703,-2.562 0,0 0.956,-1.812 0.956,-3.623 -1.912,-2.717 -3.823,-4.528 -6.69,-6.34 -0.956,0 -2.867,0.906 -2.867,0.906 0,0 -3.707,-1.506 -5.602,-2.275 -0.657,-0.267 -1.42,-0.128 -1.925,0.351 -1.592,1.508 -4.897,4.641 -4.897,4.641 0,0 -7.128,1.845 -11.4679998,0 -1.951,-2.698 -3.179,-6.675 -3.629,-8.311 -0.036,-0.134 0.015,-0.276 0.128,-0.362 0.114,-0.086 6.6599998,-5.473 6.7539998,-5.65 0.095,-0.176 0.272,-0.299 0.478,-0.332 1.963,-0.283 6.656,-0.48 7.578,3.941 z m -9.793,3.588 c 0,-1.138 0.669,-2.13 1.622,-2.406 0.668,-0.193 1.427,-0.413 2.04,-0.591 0.732,-0.211 1.505,0.037 2.038,0.654 0.207,0.239 0.428,0.496 0.637,0.738 0.53,0.615 0.59,1.587 0.14,2.281 -0.454,0.702 -1.038,1.604 -1.559,2.408 -0.722,1.116 -2.071,1.383 -3.073,0.61 -0.491,-0.38 -0.985,-0.761 -1.338,-1.034 -0.316,-0.244 -0.507,-0.655 -0.507,-1.096 0,-0.431 0,-1.006 0,-1.564 z"
     id="Mage" /></svg>