<?xml version="1.0" encoding="UTF-8" standalone="no"?>
<svg
   xmlns:dc="http://purl.org/dc/elements/1.1/"
   xmlns:cc="http://creativecommons.org/ns#"
   xmlns:rdf="http://www.w3.org/1999/02/22-rdf-syntax-ns#"
   xmlns:svg="http://www.w3.org/2000/svg"
   xmlns="http://www.w3.org/2000/svg"
   id="svg4"
   style="clip-rule:evenodd;fill-rule:evenodd;stroke-linejoin:round;stroke-miterlimit:2"
   xml:space="preserve"
   version="1.1"
   viewBox="0 0 54.438622 54.921059"
   height="54.921059"
   width="54.438622"><metadata
     id="metadata10"><rdf:RDF><cc:Work
         rdf:about=""><dc:format>image/svg+xml</dc:format><dc:type
           rdf:resource="http://purl.org/dc/dcmitype/StillImage" /></cc:Work></rdf:RDF></metadata><defs
     id="defs8" /><path
     id="path2"
     style="fill:#3030ec"
     d="m 15.575623,42.443226 c -0.839,0.378 -1.826,0.159 -2.427,-0.538 -2.67,-3.094 -9.881,-11.454 -12.62499997,-14.634 -0.637,-0.738 -0.699,-1.812 -0.152,-2.618 1.13799997,-1.678 3.07099997,-4.53 4.34399997,-6.407 0.331,-0.488 0.846,-0.821 1.427,-0.923 0.581,-0.102 1.179,0.036 1.657,0.383 0.769,0.558 1.639,1.19 2.306,1.673 0.638,0.464 1.51,0.432 2.114,-0.076 2.659,-2.236 9.743,-8.196 12.421,-10.4489995 0.605,-0.509 0.758,-1.378 0.363,-2.063 -0.257,-0.446 -0.556,-0.965 -0.837,-1.453 -0.254,-0.441 -0.305,-0.971 -0.14,-1.453 0.165,-0.482 0.531,-0.869 1.003,-1.061 1.929,-0.787 4.884,-1.99200003 6.565,-2.67800003 0.771,-0.314 1.658,-0.112 2.216,0.507 2.623,2.90300003 10.062,11.13999953 12.846,14.22199953 0.64,0.708 0.76,1.744 0.299,2.58 -0.822,1.49 -2.129,3.859 -3.043,5.515 -0.585,1.06 -1.894,1.482 -2.988,0.964 -1.055,-0.501 -2.313,-1.097 -3.168,-1.502 -0.608,-0.288 -1.326,-0.208 -1.855,0.208 -0.657,0.518 -1.577,1.242 -2.346,1.846 -0.372,0.293 -0.606,0.727 -0.647,1.198 -0.041,0.472 0.116,0.94 0.432,1.292 2.914,3.247 10.036,11.18 10.036,11.18 0,0 0.302,-0.18 0.656,-0.391 0.656,-0.391 1.493,-0.295 2.043,0.236 0.548,0.528 1.134,1.094 1.134,1.094 l 2.84,-1.121 4.389,4.483 -1.807,2.739 c 0,0 0.305,0.314 0.672,0.692 0.708,0.728 0.72,1.884 0.027,2.627 -1.002,1.073 -2.248,2.409 -2.248,2.409 0,0 -0.463,-0.157 -0.963,-0.328 -0.217,-0.074 -0.457,-0.013 -0.613,0.155 -0.156,0.168 -0.198,0.412 -0.108,0.622 0.205,0.48 0.393,0.921 0.393,0.921 0,0 -2.866,1.58 -4.431,2.442 -0.585,0.323 -1.315,0.215 -1.782,-0.264 -0.583,-0.597 -1.275,-1.307 -1.275,-1.307 l -2.323,1.121 -4.648,-4.607 1.42,-2.615 c 0,0 -0.43,-0.519 -0.838,-1.01 -0.409,-0.494 -0.396,-1.212 0.029,-1.691 0.719,-0.809 1.703,-1.916 1.703,-1.916 0,0 -7.154,-8.127 -9.776,-11.106 -0.549,-0.623 -1.466,-0.761 -2.173,-0.328 -0.872,0.533 -2.035,1.245 -2.891,1.769 -0.669,0.41 -0.946,1.242 -0.657,1.972 0.322,0.81 0.739,1.86 1.066,2.684 0.296,0.745 -0.047,1.59 -0.778,1.919 -1.796,0.808 -5.012,2.254 -6.862,3.086 z" /></svg>