<?xml version="1.0" encoding="UTF-8" standalone="no"?>
<svg
   xmlns:dc="http://purl.org/dc/elements/1.1/"
   xmlns:cc="http://creativecommons.org/ns#"
   xmlns:rdf="http://www.w3.org/1999/02/22-rdf-syntax-ns#"
   xmlns:svg="http://www.w3.org/2000/svg"
   xmlns="http://www.w3.org/2000/svg"
   id="svg25"
   style="clip-rule:evenodd;fill-rule:evenodd;stroke-linejoin:round;stroke-miterlimit:2"
   xml:space="preserve"
   version="1.1"
   viewBox="0 0 363.02493 118.59456"
   height="118.59456"
   width="363.02493"><metadata
     id="metadata29"><rdf:RDF><cc:Work
         rdf:about=""><dc:format>image/svg+xml</dc:format><dc:type
           rdf:resource="http://purl.org/dc/dcmitype/StillImage" /></cc:Work></rdf:RDF></metadata><g
     transform="translate(-0.80889523,-3.83494)"
     id="g16"><g
       id="g14"><path
         id="path2"
         style="fill:#080c19"
         d="m 251.442,6.426 c 0.298,0.003 14.14,0.727 19.473,1.057 l 3.228,4.645 7.516,-3.928 c 2.563,0.184 8.806,0.709 9.316,0.798 4.647,0.805 8.464,3.566 10.291,7.225 4.538,-2.506 9.849,-3.938 15.404,-4.554 l 4.441,4.404 4.946,-4.719 c 8.188,0.303 16.271,2.011 22.648,4.339 9.695,3.538 16.57,17.618 11.23,29.37 -2.309,5.082 -6.32,9.264 -11.586,9.901 0.146,0.121 11.98,11.233 14.57,22.26 3.358,14.297 -2.689,33.528 -15.5,41.233 l -6.821,-7.846 -3.319,10.158 c -8.576,1.504 -16.29,-0.59 -24.221,-3.415 -7.885,-2.809 -15.544,-7.285 -20.605,-13.989 0,0 -3.471,0.477 -6.205,0.192 -11.559,-1.205 -23.189,-2.212 -34.84,-3.035 0,0 -6.25,-0.9 -9.919,-3.648 -1.703,-1.275 -3.143,-2.944 -4.183,-4.895 -0.992,0.779 -1.176,0.888 -1.754,1.272 -7.731,5.141 -17.642,5.442 -26.315,5.187 -4.487,-0.127 -8.974,-0.227 -13.462,-0.3 0,0 -6.215,-0.352 -10.157,-3.232 0,0 -17.159,10.009 -24.744,-4.433 -0.6,-1.189 -2.926,-5.737 -2.926,-5.737 0,0 -0.369,3.416 -2.031,6.164 -6.262,10.358 -23.786,10.576 -30.297,1.343 -0.985,0.914 -1.137,1.021 -1.688,1.464 -12.545,10.085 -30.141,14.028 -42.275,5.928 0,0 -0.105,3.214 -0.105,3.214 -0.324,12.984 -20.108,18.368 -32.3,11.512 -4.271,-2.402 -7.137,-7.306 -7.174,-12.684 l 0.025,-20.541 c -1.677,0.226 -4.005,0.548 -4.005,0.548 l -0.036,23.374 C 37.741,118.134 20.484,126.279 8.682,120.587 4.156,118.405 0.973,113.457 0.848,107.854 0.738,90.166 0.895,54.789 0.895,54.789 L 7.516,47.984 0.948,40.811 c 0,0 0.016,-12.107 0.021,-14.213 0.117,-9.481 17.653,-15.494 29.443,-11.389 4.6,1.601 7.728,5.329 7.761,9.375 l -0.025,22.01 c 1.664,-0.227 3.997,-0.538 3.997,-0.538 l 0.027,-23.915 c 0.301,-9.213 16.849,-14.787 28.877,-10.979 2.121,0.672 4.024,1.745 5.489,3.12 0,0 5.548,-3.7 11.241,-5.369 12.127,-3.555 26.802,-3.421 36.914,2.259 0,0 5.013,-5.661 12.382,-5.935 10.163,-0.293 20.04,-2.188 29.583,-1.032 l 2.671,6.058 5.711,-5.188 c 1.872,0.631 5.288,2.012 7.004,3.321 0,0 5.631,-3.654 13.707,-3.691 15.098,0.096 31.059,-0.688 42.139,6.537 0.458,-0.509 0.547,-0.57 0.825,-0.817 3.077,-2.739 7.994,-3.997 12.727,-3.999 z m 34.359,35.587 c 6.507,6.955 6.684,20.381 -1.475,26.451 l -0.052,0.037 c 2.548,0.258 4.716,0.653 8.362,1.325 3.368,0.621 4.952,3.723 5.09,3.648 1.894,-1.029 4.002,-1.803 5.878,-1.981 0,0 -3.253,-2.975 -5.425,-5.668 -5.228,-6.485 -8.084,-14.944 -8.069,-23.649 0,0 -4.733,-0.603 -4.309,-0.163 z" /><path
         id="path4"
         style="fill:url(#_Linear1)"
         d="m 72.109,23.34 c 0.178,0.221 0.305,0.466 0.381,0.735 v 0 0 c 0.056,0.198 0.083,0.41 0.083,0.634 -0.025,16.427 -0.051,50.226 -0.077,72.97 -0.002,1.716 -0.932,3.094 -2.79,4.139 -1.859,1.047 -3.887,1.685 -6.083,1.92 -2.199,0.234 -4.223,0.029 -6.077,-0.621 -0.919,-0.322 -1.609,-0.773 -2.072,-1.356 v 0 l -10e-4,-10e-4 c -0.198,-0.25 -0.355,-0.524 -0.469,-0.822 l -3.158,-5.529 2.96,-24.911 c -7.531,0.866 -15.055,1.812 -22.57,2.836 -0.016,9.691 -0.031,19.382 -0.046,29.073 -0.002,1.717 -0.93,3.129 -2.783,4.244 -1.853,1.115 -3.873,1.83 -6.062,2.145 -2.191,0.317 -4.209,0.187 -6.055,-0.394 -0.658,-0.207 -1.199,-0.485 -1.622,-0.835 v 0 l -10e-4,-10e-4 c -0.357,-0.296 -0.631,-0.643 -0.82,-1.042 l -3.928,-4.987 17.191,-79.871 3.666,5.03 v 0 c 0.348,0.39 0.521,0.865 0.52,1.426 -0.013,6.328 -0.027,23.576 -0.041,32.337 7.515,-1.024 15.039,-1.968 22.568,-2.834 0.012,-8.762 14.86,-38.973 14.86,-38.973 z m 249.506,1.823 c 1.151,-0.78 29.272,13.238 29.272,13.238 l -3.65,6.057 c -0.171,0.332 -0.363,0.65 -0.574,0.952 l -0.001,0.001 v 0 c -0.357,0.512 -0.771,0.98 -1.242,1.405 -1.016,0.917 -2.354,1.249 -4.012,1.001 -1.357,-0.203 -2.622,-0.729 -3.792,-1.58 -1.171,-0.851 -2.644,-1.742 -4.417,-2.675 -1.776,-0.931 -4.21,-1.612 -7.306,-2.031 -2.645,-0.358 -4.815,-0.336 -6.515,0.051 -1.699,0.389 -2.927,1.021 -3.681,1.892 -0.755,0.87 -1.131,1.879 -1.129,3.023 0.002,1.502 0.645,2.887 1.933,4.157 1.286,1.272 3.008,2.528 5.163,3.775 2.155,1.248 4.497,2.564 7.03,3.948 2.531,1.387 5.08,2.962 7.648,4.729 2.568,1.766 4.929,3.78 7.082,6.037 2.152,2.257 3.87,4.884 5.157,7.874 1.286,2.989 1.933,6.417 1.94,10.28 0.003,1.56 -0.107,3.028 -0.329,4.405 l 0.816,2.44 -3.865,5.248 -0.048,0.067 -0.074,0.1 -0.019,0.026 v 0 c -0.044,0.058 -0.088,0.116 -0.133,0.173 -2.445,3.162 -5.778,5.335 -10.002,6.543 -4.226,1.21 -9.096,1.438 -14.614,0.712 -4.916,-0.646 -9.455,-1.891 -13.619,-3.744 -4.165,-1.851 -7.5,-3.959 -10.001,-6.344 -2.503,-2.382 -3.755,-4.748 -3.758,-7.109 -10e-4,-0.431 0.041,-0.869 0.127,-1.313 v 0 -0.001 c 0.155,-0.809 0.452,-1.64 0.891,-2.492 0.233,-0.453 0.495,-0.88 0.786,-1.281 l 2.046,-4.604 20.167,8.837 c 0.845,-0.357 13.982,-0.878 13.98,-2.593 -0.003,-1.86 -0.649,-3.542 -1.934,-5.045 -1.287,-1.503 -3.005,-2.94 -5.161,-4.303 -2.155,-1.363 -4.499,-2.763 -7.033,-4.198 -2.535,-1.433 -5.089,-2.967 -7.661,-4.603 -2.575,-1.634 -4.941,-3.485 -7.1,-5.556 -2.16,-2.071 -3.885,-4.462 -5.175,-7.177 -1.292,-2.716 -1.938,-5.859 -1.942,-9.437 -0.004,-3.025 0.468,-5.664 1.416,-7.913 l 3.215,-12.312 z m -77.917,-4.44 h -0.001 l 1.479,-5.133 47.142,11.309 -2.302,6.082 c -0.097,0.333 -0.216,0.653 -0.355,0.957 l -0.002,0.005 v 0 c -0.141,0.308 -0.303,0.601 -0.487,0.879 -0.792,1.201 -1.949,1.724 -3.469,1.575 -8.86,-0.864 -17.729,-1.62 -26.603,-2.267 0.005,5.274 0.009,10.548 0.013,15.822 4.968,0.362 9.934,0.759 14.897,1.189 1.522,0.132 2.682,0.814 3.476,2.039 0.064,0.099 0.126,0.199 0.185,0.3 l 2.715,0.193 -1.841,4.907 c -0.134,0.629 -0.365,1.244 -0.693,1.846 v 0 0 c -0.08,0.147 -0.167,0.294 -0.259,0.44 -0.727,1.151 -1.917,1.653 -3.571,1.51 -4.964,-0.431 -9.932,-0.827 -14.9,-1.19 0.005,5.306 0.009,10.612 0.014,15.917 8.878,0.647 17.751,1.404 26.615,2.268 1.521,0.149 2.68,0.905 3.474,2.263 0.246,0.42 0.453,0.858 0.623,1.315 v 0 l 2.53,0.969 -2.44,5.224 c -0.161,0.448 -0.362,0.882 -0.603,1.304 l -0.025,0.04 -0.002,0.005 v 0 c -0.728,1.237 -1.909,1.772 -3.543,1.613 -11.776,-1.149 -23.567,-2.106 -35.367,-2.872 -1.658,-0.107 -3.199,-0.578 -4.626,-1.414 -1.427,-0.835 -2.139,-1.999 -2.14,-3.497 -0.014,-19.816 -0.005,-63.386 0.066,-63.598 z M 78.761,75.145 c 0,0 0.26,-3.124 0.262,-5.093 0.009,-8.27 7.722,-49.451 12.291,-49.682 4.57,-0.23 20.79,-1.542 24.501,-0.662 3.003,0.712 5.496,1.883 7.478,3.505 h 10e-4 l 2.601,0.909 1.125,4.288 c 0.232,0.659 0.415,1.356 0.548,2.09 l 0.001,0.002 h -0.001 c 0.179,0.983 0.267,2.032 0.266,3.148 -0.005,5.973 -0.008,24.718 -0.013,32.988 -0.003,5.369 -1.085,9.725 -3.241,13.078 -2.158,3.355 -5.094,5.849 -8.808,7.501 -3.716,1.654 -7.858,2.632 -12.432,2.953 -4.573,0.32 -8.696,-0.079 -12.371,-1.216 -3.674,-1.137 -6.587,-3.222 -8.733,-6.275 -0.365,-0.519 -0.7,-1.072 -1.003,-1.658 v 0 -0.001 c -0.379,-0.732 -0.708,-1.515 -0.989,-2.351 z m 53.857,3.117 1.163,-57.584 c 0.001,-0.856 19.331,-2.304 20.194,-2.962 0.862,-0.656 27.495,6.755 29.685,8.851 l -0.025,11.979 c 0,3.497 -0.515,6.504 -1.543,9.03 -1.029,2.525 -2.456,4.599 -4.281,6.225 -1.826,1.626 -3.9,2.882 -6.223,3.773 3.348,5.679 12.686,16.32 12.686,16.32 0,0 -0.04,5.985 -0.04,6.034 0,1.186 -0.498,2.37 -1.493,3.552 -0.997,1.184 -2.242,2.148 -3.736,2.898 -1.493,0.75 -3.004,1.129 -4.531,1.135 -0.996,0.005 -1.942,-0.192 -2.838,-0.59 -0.896,-0.399 -1.611,-1.095 -2.142,-2.09 -4.284,-7.781 -8.568,-15.539 -12.851,-23.271 -0.483,-0.873 -1.411,-1.405 -2.408,-1.382 -0.817,0.019 -1.635,0.039 -2.452,0.06 -1.389,0.035 -2.496,1.171 -2.496,2.56 -0.002,6.689 -0.004,13.379 -0.006,20.068 0,1.498 -0.814,2.644 -2.441,3.441 -1.627,0.798 -3.402,1.23 -5.326,1.296 -1.926,0.068 -3.7,-0.239 -5.325,-0.924 -0.977,-0.411 -1.66,-0.967 -2.049,-1.671 v 0 -0.002 c -0.259,-0.467 -1.522,-6.746 -1.522,-6.746 z m 93.077,7.495 c -3.716,1.28 -7.863,1.84 -12.442,1.7 -5.874,-0.181 -11.749,-0.314 -17.625,-0.4 -2.059,-0.031 -3.703,-0.485 -4.931,-1.372 -1.228,-0.886 -1.842,-1.92 -1.842,-3.106 -0.002,-19.879 -0.004,-48.211 -0.006,-62.57 0,-0.856 0.613,-1.596 1.841,-2.219 1.227,-0.622 2.869,-0.924 4.926,-0.902 5.871,0.061 11.742,0.158 17.612,0.288 4.577,0.102 8.72,0.733 12.435,1.883 3.713,1.151 6.648,2.944 8.806,5.365 2.155,2.423 3.235,5.576 3.239,9.453 0.005,5.838 0.01,24.431 0.015,32.513 0.003,5.369 -1.073,9.617 -3.226,12.752 -2.154,3.139 -5.088,5.337 -8.802,6.615 z M 109.942,35.711 c -1.589,-1.396 -3.775,-2.002 -6.556,-1.808 -2.782,0.195 -4.953,1.106 -6.509,2.722 -1.559,1.616 -2.338,4.051 -2.34,7.295 -0.008,8.27 -0.015,16.54 -0.023,24.81 -0.003,3.246 4.138,4.808 5.693,6.188 1.554,1.379 12.096,-4.186 12.098,-7.432 0.006,-8.271 0.012,-16.54 0.018,-24.81 0.002,-3.245 -0.792,-5.569 -2.381,-6.965 z m 112.25,5.716 c -0.002,-3.183 -0.799,-5.569 -2.392,-7.159 -1.592,-1.587 -3.781,-2.43 -6.567,-2.515 -2.953,-0.091 -5.904,-0.17 -8.857,-0.236 0.004,14.323 0.008,28.647 0.012,42.97 2.954,0.068 5.906,0.146 8.86,0.237 2.787,0.086 4.977,-0.599 6.569,-2.072 1.592,-1.469 2.386,-3.794 2.385,-6.978 -0.004,-8.082 -0.008,-16.164 -0.01,-24.247 z m -56.474,-8.229 c -1.592,-1.228 -3.783,-1.821 -6.569,-1.769 -2.288,0.043 -4.577,0.093 -6.865,0.151 -1.662,0.042 -2.987,1.4 -2.988,3.063 -0.001,4.81 -0.003,9.619 -0.005,14.429 3.285,-0.091 6.569,-0.168 9.855,-0.23 2.787,-0.052 4.977,-0.722 6.57,-2.022 1.593,-1.3 2.389,-3.57 2.39,-6.816 0,-3.307 -0.796,-5.577 -2.388,-6.806 z" /><path
         style="fill:#e7a843"
         d="m 10.504,43.513 0.024,-18.537 c 0.003,-1.32 0.95,-2.376 2.845,-3.164 1.893,-0.785 3.96,-1.296 6.202,-1.53 2.241,-0.233 4.308,-0.153 6.203,0.238 1.892,0.392 2.839,1.251 2.836,2.572 -0.013,5.833 -0.025,19.055 -0.038,28.169 -0.001,0.714 0.306,1.393 0.843,1.864 0.537,0.47 1.25,0.685 1.958,0.591 5.777,-0.771 11.558,-1.496 17.344,-2.176 1.695,-0.199 2.973,-1.634 2.976,-3.34 0.01,-8.972 0.021,-21.408 0.032,-27.202 0.002,-1.32 0.952,-2.351 2.854,-3.087 1.899,-0.734 3.973,-1.19 6.224,-1.363 2.248,-0.173 4.323,-0.037 6.224,0.405 1.899,0.443 2.849,1.328 2.847,2.648 -0.026,16.801 -0.052,49.298 -0.079,72.56 -0.002,1.755 -0.955,3.165 -2.858,4.234 -1.905,1.07 -3.982,1.723 -6.232,1.963 -2.253,0.24 -4.327,0.03 -6.226,-0.635 -1.901,-0.664 -2.848,-1.87 -2.846,-3.626 0.012,-8.92 0.023,-17.841 0.035,-26.762 0.001,-0.756 -0.321,-1.475 -0.885,-1.978 -0.565,-0.503 -1.317,-0.74 -2.067,-0.652 -5.735,0.674 -11.466,1.393 -17.192,2.156 -1.705,0.228 -2.978,1.68 -2.981,3.4 -0.014,8.912 -0.028,17.824 -0.042,26.736 -0.002,1.756 -0.953,3.2 -2.851,4.341 -1.898,1.14 -3.968,1.871 -6.211,2.194 -2.244,0.324 -4.312,0.191 -6.203,-0.403 -1.894,-0.594 -2.837,-1.765 -2.834,-3.521 l 0.08,-46.015 5.049,-5.049 z M 324.11,17.776 c 1.745,0.02 3.503,0.116 5.275,0.288 1.546,0.151 3.597,0.432 6.149,0.85 2.552,0.417 5.121,1.001 7.712,1.753 2.588,0.752 4.771,1.691 6.55,2.812 1.778,1.123 2.669,2.453 2.673,3.984 0.002,0.688 -0.248,7.9 -0.746,9.248 -0.501,1.349 -1.27,2.491 -2.31,3.428 -1.041,0.938 -2.412,1.278 -4.11,1.024 -1.391,-0.208 -2.687,-0.746 -3.885,-1.616 -1.2,-0.87 -2.709,-1.782 -4.526,-2.736 -1.819,-0.952 -4.313,-1.649 -7.485,-2.077 -2.709,-0.366 -4.933,-0.344 -6.674,0.052 -1.741,0.398 -2.999,1.044 -3.771,1.935 -0.774,0.89 -1.159,1.922 -1.157,3.092 0.002,1.536 0.661,2.953 1.98,4.252 1.318,1.301 3.082,2.585 5.29,3.861 2.208,1.276 4.607,2.622 7.202,4.038 2.593,1.418 5.205,3.029 7.836,4.836 2.63,1.807 5.049,3.867 7.255,6.175 2.205,2.308 3.965,4.995 5.284,8.053 1.317,3.058 1.98,6.564 1.987,10.515 0.01,5.267 -1.238,9.511 -3.741,12.743 -2.505,3.234 -5.92,5.456 -10.248,6.692 -4.329,1.237 -9.319,1.471 -14.972,0.728 -5.036,-0.661 -9.687,-1.934 -13.953,-3.829 -4.267,-1.894 -7.683,-4.05 -10.246,-6.489 -2.564,-2.436 -3.847,-4.856 -3.85,-7.271 -0.002,-1.243 0.346,-2.541 1.043,-3.893 0.696,-1.352 1.644,-2.474 2.847,-3.368 1.2,-0.892 2.538,-1.256 4.012,-1.089 1.396,0.158 2.695,0.71 3.899,1.654 1.202,0.946 2.521,2.051 3.958,3.321 1.435,1.27 3.102,2.424 5.003,3.465 1.899,1.043 4.204,1.736 6.915,2.092 1.781,0.233 3.543,0.232 5.284,-0.008 1.74,-0.239 3.17,-0.808 4.291,-1.712 1.119,-0.903 1.679,-2.233 1.676,-3.988 -0.003,-1.902 -0.664,-3.622 -1.981,-5.16 -1.318,-1.537 -3.079,-3.006 -5.287,-4.401 -2.208,-1.394 -4.61,-2.826 -7.206,-4.293 -2.597,-1.466 -5.214,-3.035 -7.849,-4.708 -2.638,-1.671 -5.062,-3.565 -7.274,-5.683 -2.213,-2.118 -3.98,-4.563 -5.302,-7.34 -1.323,-2.778 -1.985,-5.993 -1.989,-9.652 -0.006,-4.095 0.843,-12.906 2.546,-14.858 1.701,-1.951 3.986,-3.456 6.851,-4.511 2.864,-1.053 6.058,-1.728 9.582,-2.017 l 0.127,-0.01 2.038,4.283 z m -47.277,-3.207 c 3.796,0.238 7.591,0.491 11.385,0.758 1.692,0.119 2.912,0.703 3.659,1.749 0.746,1.046 1.121,2.122 1.123,3.228 0.002,1.292 -0.403,6.342 -1.214,7.568 -0.811,1.228 -1.996,1.763 -3.554,1.611 -8.109,-0.789 -16.225,-1.49 -24.346,-2.103 -0.751,-0.056 -1.491,0.203 -2.042,0.715 -0.552,0.513 -0.865,1.232 -0.865,1.984 0.004,3.674 0.007,7.347 0.01,11.021 0.001,1.267 0.978,2.319 2.242,2.413 4.342,0.324 8.683,0.675 13.022,1.05 1.559,0.135 2.747,0.832 3.561,2.085 0.815,1.255 1.223,2.648 1.225,4.18 0.001,1.278 -0.371,2.504 -1.115,3.681 -0.745,1.178 -1.965,1.691 -3.659,1.545 -4.522,-0.392 -9.046,-0.755 -13.572,-1.092 -0.437,-0.032 -0.868,0.119 -1.189,0.417 -0.321,0.299 -0.503,0.717 -0.503,1.156 0.004,4.127 0.007,8.254 0.011,12.38 10e-4,1.241 0.958,2.271 2.196,2.363 8.364,0.626 16.722,1.346 25.073,2.158 1.559,0.152 2.746,0.926 3.56,2.315 0.815,1.392 1.223,2.982 1.225,4.768 0.002,1.532 -0.369,2.947 -1.113,4.244 -0.744,1.298 -1.963,1.861 -3.657,1.696 -12.065,-1.175 -24.145,-2.154 -36.234,-2.937 -1.699,-0.11 -3.278,-0.591 -4.739,-1.446 -1.462,-0.854 -2.192,-2.045 -2.193,-3.577 -0.014,-20.268 -0.027,-47.641 -0.041,-62.281 -0.001,-1.106 0.727,-1.906 2.187,-2.395 1.458,-0.49 3.036,-0.696 4.733,-0.616 6.508,0.305 13.014,0.65 19.516,1.037 l 0.971,3.04 z M 123.16,73.789 c -2.211,3.431 -5.219,5.982 -9.024,7.672 -3.807,1.692 -8.051,2.692 -12.737,3.02 C 96.714,84.808 92.49,84.4 88.725,83.237 84.961,82.075 81.977,79.942 79.778,76.819 77.577,73.698 76.48,69.396 76.486,63.905 c 0.009,-8.459 0.018,-16.917 0.027,-25.376 0.006,-5.489 1.111,-14.483 3.318,-17.024 2.205,-2.538 5.191,-4.456 8.956,-5.738 3.765,-1.282 7.988,-2.047 12.669,-2.283 4.682,-0.236 8.922,0.101 12.724,1.001 3.801,0.901 6.804,2.517 9.01,4.833 2.204,2.318 3.307,5.463 3.304,9.428 -0.005,6.109 -0.009,23.208 -0.014,31.667 -0.003,5.491 -1.111,9.946 -3.32,13.376 z m 49.362,-60.581 c 3.193,0.908 5.784,2.318 7.775,4.22 2.243,2.145 3.365,5.113 3.365,8.893 0,2.583 -0.527,12.012 -1.58,14.595 -1.055,2.583 -2.517,4.704 -4.386,6.367 -1.278,1.136 -2.674,2.096 -4.189,2.88 -0.548,0.28 -0.957,0.774 -1.129,1.365 -0.171,0.591 -0.091,1.227 0.222,1.757 3.714,6.318 7.439,12.647 11.166,18.995 0.204,0.257 0.339,0.545 0.408,0.864 0.067,0.32 0.102,0.607 0.102,0.862 0,1.213 -0.51,2.424 -1.53,3.633 -1.021,1.211 -2.296,2.197 -3.827,2.964 -1.53,0.767 -3.078,1.154 -4.642,1.161 -1.021,0.005 -1.99,-0.197 -2.908,-0.604 -0.918,-0.408 -1.65,-1.12 -2.194,-2.137 -4.456,-8.078 -8.91,-16.131 -13.364,-24.158 -0.373,-0.673 -1.09,-1.084 -1.86,-1.067 -1.016,0.024 -2.033,0.048 -3.049,0.074 -1.352,0.035 -2.429,1.141 -2.43,2.492 -0.002,6.883 -0.003,13.766 -0.006,20.649 0,1.532 -0.834,2.704 -2.5,3.519 -1.667,0.816 -3.486,1.258 -5.457,1.326 -1.973,0.069 -3.791,-0.245 -5.456,-0.945 -1.666,-0.7 -2.497,-1.813 -2.496,-3.345 0.009,-20.3 0.019,-47.428 0.029,-62.09 10e-4,-0.876 0.442,-1.65 1.326,-2.322 0.883,-0.671 2.072,-1.029 3.567,-1.07 7.032,-0.191 14.066,-0.334 21.1,-0.429 2.206,-0.03 4.311,0.046 6.314,0.226 l 3.118,4.604 z m 54.231,66.76 c -3.807,1.309 -8.055,1.882 -12.747,1.738 -6.018,-0.185 -12.037,-0.321 -18.057,-0.409 -2.109,-0.031 -3.793,-0.496 -5.051,-1.403 -1.259,-0.906 -1.888,-1.964 -1.888,-3.177 -0.002,-20.332 -0.004,-47.237 -0.006,-61.923 0,-0.876 0.628,-1.633 1.886,-2.27 1.257,-0.636 2.94,-0.945 5.047,-0.923 6.015,0.063 12.03,0.162 18.044,0.295 4.689,0.104 8.934,0.75 12.74,1.926 3.804,1.177 6.811,3.011 9.021,5.488 2.208,2.478 3.315,5.703 3.319,9.668 0.005,5.971 0.01,22.915 0.015,31.181 0.003,5.492 -1.099,9.836 -3.305,13.043 -2.207,3.21 -5.213,5.458 -9.018,6.766 z M 108.163,28.781 c -1.628,-1.428 -3.867,-2.048 -6.717,-1.849 -2.85,0.199 -5.074,1.131 -6.668,2.784 -1.597,1.653 -2.395,4.143 -2.398,7.461 -0.008,8.459 -0.015,16.917 -0.023,25.376 -0.003,3.32 0.792,5.682 2.386,7.093 1.592,1.411 3.815,2.011 6.667,1.812 2.851,-0.199 5.093,-1.111 6.724,-2.748 1.631,-1.636 2.448,-4.11 2.45,-7.43 0.006,-8.459 0.012,-16.917 0.018,-25.375 0.002,-3.319 -0.811,-5.696 -2.439,-7.124 z m 115.001,5.846 c -0.002,-3.255 -0.818,-5.696 -2.45,-7.322 -1.631,-1.623 -3.874,-2.485 -6.728,-2.572 -2.079,-0.063 -4.157,-0.122 -6.235,-0.174 -0.746,-0.019 -1.468,0.265 -2.003,0.786 -0.534,0.522 -0.836,1.237 -0.835,1.983 0.003,12.868 0.007,25.736 0.01,38.603 0.001,1.395 1.113,2.536 2.508,2.57 2.19,0.055 4.38,0.115 6.57,0.182 2.856,0.088 5.099,-0.613 6.73,-2.119 1.631,-1.503 2.445,-3.881 2.444,-7.137 -0.004,-8.266 -0.008,-16.533 -0.011,-24.8 z m -57.858,-8.416 c -1.631,-1.256 -3.875,-1.863 -6.73,-1.81 -2.218,0.043 -4.437,0.091 -6.655,0.146 -1.913,0.047 -3.439,1.611 -3.439,3.524 -0.002,3.925 -0.003,7.85 -0.004,11.775 0,0.683 0.275,1.337 0.764,1.813 0.489,0.477 1.149,0.736 1.832,0.719 2.499,-0.064 4.999,-0.119 7.499,-0.167 2.855,-0.053 5.099,-0.738 6.731,-2.068 1.632,-1.329 2.448,-3.651 2.449,-6.971 0,-3.383 -0.816,-5.704 -2.447,-6.961 z"
         id="WhiteFont" /><clipPath
         id="_clip2"><path
           id="path7"
           d="m 10.504,43.513 0.024,-18.537 c 0.003,-1.32 0.95,-2.376 2.845,-3.164 1.893,-0.785 3.96,-1.296 6.202,-1.53 2.241,-0.233 4.308,-0.153 6.203,0.238 1.892,0.392 2.839,1.251 2.836,2.572 -0.013,5.833 -0.025,19.055 -0.038,28.169 -0.001,0.714 0.306,1.393 0.843,1.864 0.537,0.47 1.25,0.685 1.958,0.591 5.777,-0.771 11.558,-1.496 17.344,-2.176 1.695,-0.199 2.973,-1.634 2.976,-3.34 0.01,-8.972 0.021,-21.408 0.032,-27.202 0.002,-1.32 0.952,-2.351 2.854,-3.087 1.899,-0.734 3.973,-1.19 6.224,-1.363 2.248,-0.173 4.323,-0.037 6.224,0.405 1.899,0.443 2.849,1.328 2.847,2.648 -0.026,16.801 -0.052,49.298 -0.079,72.56 -0.002,1.755 -0.955,3.165 -2.858,4.234 -1.905,1.07 -3.982,1.723 -6.232,1.963 -2.253,0.24 -4.327,0.03 -6.226,-0.635 -1.901,-0.664 -2.848,-1.87 -2.846,-3.626 0.012,-8.92 0.023,-17.841 0.035,-26.762 0.001,-0.756 -0.321,-1.475 -0.885,-1.978 -0.565,-0.503 -1.317,-0.74 -2.067,-0.652 -5.735,0.674 -11.466,1.393 -17.192,2.156 -1.705,0.228 -2.978,1.68 -2.981,3.4 -0.014,8.912 -0.028,17.824 -0.042,26.736 -0.002,1.756 -0.953,3.2 -2.851,4.341 -1.898,1.14 -3.968,1.871 -6.211,2.194 -2.244,0.324 -4.312,0.191 -6.203,-0.403 -1.894,-0.594 -2.837,-1.765 -2.834,-3.521 l 0.08,-46.015 5.049,-5.049 z M 324.11,17.776 c 1.745,0.02 3.503,0.116 5.275,0.288 1.546,0.151 3.597,0.432 6.149,0.85 2.552,0.417 5.121,1.001 7.712,1.753 2.588,0.752 4.771,1.691 6.55,2.812 1.778,1.123 2.669,2.453 2.673,3.984 0.002,0.688 -0.248,7.9 -0.746,9.248 -0.501,1.349 -1.27,2.491 -2.31,3.428 -1.041,0.938 -2.412,1.278 -4.11,1.024 -1.391,-0.208 -2.687,-0.746 -3.885,-1.616 -1.2,-0.87 -2.709,-1.782 -4.526,-2.736 -1.819,-0.952 -4.313,-1.649 -7.485,-2.077 -2.709,-0.366 -4.933,-0.344 -6.674,0.052 -1.741,0.398 -2.999,1.044 -3.771,1.935 -0.774,0.89 -1.159,1.922 -1.157,3.092 0.002,1.536 0.661,2.953 1.98,4.252 1.318,1.301 3.082,2.585 5.29,3.861 2.208,1.276 4.607,2.622 7.202,4.038 2.593,1.418 5.205,3.029 7.836,4.836 2.63,1.807 5.049,3.867 7.255,6.175 2.205,2.308 3.965,4.995 5.284,8.053 1.317,3.058 1.98,6.564 1.987,10.515 0.01,5.267 -1.238,9.511 -3.741,12.743 -2.505,3.234 -5.92,5.456 -10.248,6.692 -4.329,1.237 -9.319,1.471 -14.972,0.728 -5.036,-0.661 -9.687,-1.934 -13.953,-3.829 -4.267,-1.894 -7.683,-4.05 -10.246,-6.489 -2.564,-2.436 -3.847,-4.856 -3.85,-7.271 -0.002,-1.243 0.346,-2.541 1.043,-3.893 0.696,-1.352 1.644,-2.474 2.847,-3.368 1.2,-0.892 2.538,-1.256 4.012,-1.089 1.396,0.158 2.695,0.71 3.899,1.654 1.202,0.946 2.521,2.051 3.958,3.321 1.435,1.27 3.102,2.424 5.003,3.465 1.899,1.043 4.204,1.736 6.915,2.092 1.781,0.233 3.543,0.232 5.284,-0.008 1.74,-0.239 3.17,-0.808 4.291,-1.712 1.119,-0.903 1.679,-2.233 1.676,-3.988 -0.003,-1.902 -0.664,-3.622 -1.981,-5.16 -1.318,-1.537 -3.079,-3.006 -5.287,-4.401 -2.208,-1.394 -4.61,-2.826 -7.206,-4.293 -2.597,-1.466 -5.214,-3.035 -7.849,-4.708 -2.638,-1.671 -5.062,-3.565 -7.274,-5.683 -2.213,-2.118 -3.98,-4.563 -5.302,-7.34 -1.323,-2.778 -1.985,-5.993 -1.989,-9.652 -0.006,-4.095 0.843,-12.906 2.546,-14.858 1.701,-1.951 3.986,-3.456 6.851,-4.511 2.864,-1.053 6.058,-1.728 9.582,-2.017 l 0.127,-0.01 2.038,4.283 z m -47.277,-3.207 c 3.796,0.238 7.591,0.491 11.385,0.758 1.692,0.119 2.912,0.703 3.659,1.749 0.746,1.046 1.121,2.122 1.123,3.228 0.002,1.292 -0.403,6.342 -1.214,7.568 -0.811,1.228 -1.996,1.763 -3.554,1.611 -8.109,-0.789 -16.225,-1.49 -24.346,-2.103 -0.751,-0.056 -1.491,0.203 -2.042,0.715 -0.552,0.513 -0.865,1.232 -0.865,1.984 0.004,3.674 0.007,7.347 0.01,11.021 0.001,1.267 0.978,2.319 2.242,2.413 4.342,0.324 8.683,0.675 13.022,1.05 1.559,0.135 2.747,0.832 3.561,2.085 0.815,1.255 1.223,2.648 1.225,4.18 0.001,1.278 -0.371,2.504 -1.115,3.681 -0.745,1.178 -1.965,1.691 -3.659,1.545 -4.522,-0.392 -9.046,-0.755 -13.572,-1.092 -0.437,-0.032 -0.868,0.119 -1.189,0.417 -0.321,0.299 -0.503,0.717 -0.503,1.156 0.004,4.127 0.007,8.254 0.011,12.38 10e-4,1.241 0.958,2.271 2.196,2.363 8.364,0.626 16.722,1.346 25.073,2.158 1.559,0.152 2.746,0.926 3.56,2.315 0.815,1.392 1.223,2.982 1.225,4.768 0.002,1.532 -0.369,2.947 -1.113,4.244 -0.744,1.298 -1.963,1.861 -3.657,1.696 -12.065,-1.175 -24.145,-2.154 -36.234,-2.937 -1.699,-0.11 -3.278,-0.591 -4.739,-1.446 -1.462,-0.854 -2.192,-2.045 -2.193,-3.577 -0.014,-20.268 -0.027,-47.641 -0.041,-62.281 -0.001,-1.106 0.727,-1.906 2.187,-2.395 1.458,-0.49 3.036,-0.696 4.733,-0.616 6.508,0.305 13.014,0.65 19.516,1.037 l 0.971,3.04 z M 123.16,73.789 c -2.211,3.431 -5.219,5.982 -9.024,7.672 -3.807,1.692 -8.051,2.692 -12.737,3.02 C 96.714,84.808 92.49,84.4 88.725,83.237 84.961,82.075 81.977,79.942 79.778,76.819 77.577,73.698 76.48,69.396 76.486,63.905 c 0.009,-8.459 0.018,-16.917 0.027,-25.376 0.006,-5.489 1.111,-14.483 3.318,-17.024 2.205,-2.538 5.191,-4.456 8.956,-5.738 3.765,-1.282 7.988,-2.047 12.669,-2.283 4.682,-0.236 8.922,0.101 12.724,1.001 3.801,0.901 6.804,2.517 9.01,4.833 2.204,2.318 3.307,5.463 3.304,9.428 -0.005,6.109 -0.009,23.208 -0.014,31.667 -0.003,5.491 -1.111,9.946 -3.32,13.376 z m 49.362,-60.581 c 3.193,0.908 5.784,2.318 7.775,4.22 2.243,2.145 3.365,5.113 3.365,8.893 0,2.583 -0.527,12.012 -1.58,14.595 -1.055,2.583 -2.517,4.704 -4.386,6.367 -1.278,1.136 -2.674,2.096 -4.189,2.88 -0.548,0.28 -0.957,0.774 -1.129,1.365 -0.171,0.591 -0.091,1.227 0.222,1.757 3.714,6.318 7.439,12.647 11.166,18.995 0.204,0.257 0.339,0.545 0.408,0.864 0.067,0.32 0.102,0.607 0.102,0.862 0,1.213 -0.51,2.424 -1.53,3.633 -1.021,1.211 -2.296,2.197 -3.827,2.964 -1.53,0.767 -3.078,1.154 -4.642,1.161 -1.021,0.005 -1.99,-0.197 -2.908,-0.604 -0.918,-0.408 -1.65,-1.12 -2.194,-2.137 -4.456,-8.078 -8.91,-16.131 -13.364,-24.158 -0.373,-0.673 -1.09,-1.084 -1.86,-1.067 -1.016,0.024 -2.033,0.048 -3.049,0.074 -1.352,0.035 -2.429,1.141 -2.43,2.492 -0.002,6.883 -0.003,13.766 -0.006,20.649 0,1.532 -0.834,2.704 -2.5,3.519 -1.667,0.816 -3.486,1.258 -5.457,1.326 -1.973,0.069 -3.791,-0.245 -5.456,-0.945 -1.666,-0.7 -2.497,-1.813 -2.496,-3.345 0.009,-20.3 0.019,-47.428 0.029,-62.09 10e-4,-0.876 0.442,-1.65 1.326,-2.322 0.883,-0.671 2.072,-1.029 3.567,-1.07 7.032,-0.191 14.066,-0.334 21.1,-0.429 2.206,-0.03 4.311,0.046 6.314,0.226 l 3.118,4.604 z m 54.231,66.76 c -3.807,1.309 -8.055,1.882 -12.747,1.738 -6.018,-0.185 -12.037,-0.321 -18.057,-0.409 -2.109,-0.031 -3.793,-0.496 -5.051,-1.403 -1.259,-0.906 -1.888,-1.964 -1.888,-3.177 -0.002,-20.332 -0.004,-47.237 -0.006,-61.923 0,-0.876 0.628,-1.633 1.886,-2.27 1.257,-0.636 2.94,-0.945 5.047,-0.923 6.015,0.063 12.03,0.162 18.044,0.295 4.689,0.104 8.934,0.75 12.74,1.926 3.804,1.177 6.811,3.011 9.021,5.488 2.208,2.478 3.315,5.703 3.319,9.668 0.005,5.971 0.01,22.915 0.015,31.181 0.003,5.492 -1.099,9.836 -3.305,13.043 -2.207,3.21 -5.213,5.458 -9.018,6.766 z M 108.163,28.781 c -1.628,-1.428 -3.867,-2.048 -6.717,-1.849 -2.85,0.199 -5.074,1.131 -6.668,2.784 -1.597,1.653 -2.395,4.143 -2.398,7.461 -0.008,8.459 -0.015,16.917 -0.023,25.376 -0.003,3.32 0.792,5.682 2.386,7.093 1.592,1.411 3.815,2.011 6.667,1.812 2.851,-0.199 5.093,-1.111 6.724,-2.748 1.631,-1.636 2.448,-4.11 2.45,-7.43 0.006,-8.459 0.012,-16.917 0.018,-25.375 0.002,-3.319 -0.811,-5.696 -2.439,-7.124 z m 115.001,5.846 c -0.002,-3.255 -0.818,-5.696 -2.45,-7.322 -1.631,-1.623 -3.874,-2.485 -6.728,-2.572 -2.079,-0.063 -4.157,-0.122 -6.235,-0.174 -0.746,-0.019 -1.468,0.265 -2.003,0.786 -0.534,0.522 -0.836,1.237 -0.835,1.983 0.003,12.868 0.007,25.736 0.01,38.603 0.001,1.395 1.113,2.536 2.508,2.57 2.19,0.055 4.38,0.115 6.57,0.182 2.856,0.088 5.099,-0.613 6.73,-2.119 1.631,-1.503 2.445,-3.881 2.444,-7.137 -0.004,-8.266 -0.008,-16.533 -0.011,-24.8 z m -57.858,-8.416 c -1.631,-1.256 -3.875,-1.863 -6.73,-1.81 -2.218,0.043 -4.437,0.091 -6.655,0.146 -1.913,0.047 -3.439,1.611 -3.439,3.524 -0.002,3.925 -0.003,7.85 -0.004,11.775 0,0.683 0.275,1.337 0.764,1.813 0.489,0.477 1.149,0.736 1.832,0.719 2.499,-0.064 4.999,-0.119 7.499,-0.167 2.855,-0.053 5.099,-0.738 6.731,-2.068 1.632,-1.329 2.448,-3.651 2.449,-6.971 0,-3.383 -0.816,-5.704 -2.447,-6.961 z" /></clipPath><g
         id="g11"
         clip-path="url(#_clip2)"><path
           style="fill:#e5cc60"
           d="M 394.451,77.908 C 306.186,29.081 52.168,45.617 -20.543,74.971 l 38.919,39.506 319.848,1.017 z"
           id="Reflection" /></g><path
         style="fill:#848260"
         d="m 20.65,103.316 1.474,-5.082 2.872,3.479 0.296,3.822 z m 315.339,-1.421 0.198,-7.779 4.672,6.802 -3.779,4.143 z m -61.737,-16.714 -5.065,2.609 -4.433,-3.373 4.997,-6.223 z m -204.44,-3.972 -2.94,1.652 2.934,3.02 0.993,-2.097 z m 67.719,0.441 2.916,-3.456 2.896,3.284 -2.711,3.255 z m -20.694,-9.496 1.069,7.168 2.958,1.967 2.512,-7.843 z m 208.094,-9.334 -4.121,3.191 1.332,4.004 2.116,-2.03 z m -223.742,-39.532 -2.867,4.236 4.155,3.963 0.871,-4.56 z"
         id="Scratches" /></g></g><defs
     id="defs23"><linearGradient
       gradientTransform="matrix(0,67.8447,-67.8447,0,182,47.7985)"
       gradientUnits="userSpaceOnUse"
       y2="0"
       x2="1"
       y1="0"
       x1="0"
       id="_Linear1"><stop
         id="stop18"
         style="stop-color:#a6322c;stop-opacity:1"
         offset="0" /><stop
         id="stop20"
         style="stop-color:#2f504e;stop-opacity:1"
         offset="1" /></linearGradient></defs></svg>