<?xml version="1.0" encoding="UTF-8" standalone="no"?>
<svg
   xmlns:dc="http://purl.org/dc/elements/1.1/"
   xmlns:cc="http://creativecommons.org/ns#"
   xmlns:rdf="http://www.w3.org/1999/02/22-rdf-syntax-ns#"
   xmlns:svg="http://www.w3.org/2000/svg"
   xmlns="http://www.w3.org/2000/svg"
   id="svg85"
   style="clip-rule:evenodd;fill-rule:evenodd;stroke-linejoin:round;stroke-miterlimit:5"
   xml:space="preserve"
   version="1.1"
   viewBox="0 0 119.825 331.10449"
   height="331.10449"
   width="119.825"><metadata
     id="metadata91"><rdf:RDF><cc:Work
         rdf:about=""><dc:format>image/svg+xml</dc:format><dc:type
           rdf:resource="http://purl.org/dc/dcmitype/StillImage" /></cc:Work></rdf:RDF></metadata><defs
     id="defs89" /><g
     transform="translate(-3.0875032,-2.2965033)"
     id="g83"><path
       id="path2"
       style="fill:#b6273a"
       d="m 63,33.502 6.299,2.206 6.473,47.129 L 63,77.472 50.228,82.837 56.701,35.708 Z" /><path
       id="path4"
       style="fill:none;stroke:#0c0e20;stroke-width:14.96000004px"
       d="m 65.471,324.267 c -0.413,1.001 -1.389,1.654 -2.471,1.654 -1.082,0 -2.058,-0.653 -2.471,-1.654 -4.603,-11.152 -14.348,-34.76 -17.928,-43.434 -0.894,-2.165 -1.31,-4.497 -1.219,-6.838 0.201,-5.171 0.55,-14.162 0.55,-14.162 L 45.899,255.225 42.19,253.169 48.318,95.288 63,94.277 l 14.682,1.011 5.032,129.667 -3.762,2.983 4.077,5.113 c 0,0 1.18,30.398 1.589,40.944 0.091,2.341 -0.325,4.673 -1.219,6.838 -2.373,5.75 -7.03,17.032 -7.03,17.032 l -3.424,0.754 1.125,4.815 c 0,0 -5.336,12.929 -8.599,20.833 z" /><path
       id="path6"
       style="fill:#70b8d9"
       d="m 65.471,324.267 c -0.413,1.001 -1.389,1.654 -2.471,1.654 -1.082,0 -2.058,-0.653 -2.471,-1.654 -4.603,-11.152 -14.348,-34.76 -17.928,-43.434 -0.894,-2.165 -1.31,-4.497 -1.219,-6.838 0.201,-5.171 0.55,-14.162 0.55,-14.162 L 45.899,255.225 42.19,253.169 48.318,95.288 63,94.277 l 14.682,1.011 5.032,129.667 -3.762,2.983 4.077,5.113 c 0,0 1.18,30.398 1.589,40.944 0.091,2.341 -0.325,4.673 -1.219,6.838 -2.373,5.75 -7.03,17.032 -7.03,17.032 l -3.424,0.754 1.125,4.815 c 0,0 -5.336,12.929 -8.599,20.833 z" /><clipPath
       id="_clip1"><path
         id="path8"
         d="m 65.471,324.267 c -0.413,1.001 -1.389,1.654 -2.471,1.654 -1.082,0 -2.058,-0.653 -2.471,-1.654 -4.603,-11.152 -14.348,-34.76 -17.928,-43.434 -0.894,-2.165 -1.31,-4.497 -1.219,-6.838 0.201,-5.171 0.55,-14.162 0.55,-14.162 L 45.899,255.225 42.19,253.169 48.318,95.288 63,94.277 l 14.682,1.011 5.032,129.667 -3.762,2.983 4.077,5.113 c 0,0 1.18,30.398 1.589,40.944 0.091,2.341 -0.325,4.673 -1.219,6.838 -2.373,5.75 -7.03,17.032 -7.03,17.032 l -3.424,0.754 1.125,4.815 c 0,0 -5.336,12.929 -8.599,20.833 z" /></clipPath><g
       id="g13"
       clip-path="url(#_clip1)"><path
         id="path11"
         style="fill:#70efe2;fill-opacity:0.58999999"
         d="M 84.756,277.547 63,260.809 41.244,277.547 63,330.254 Z" /></g><path
       id="path15"
       style="fill:none;stroke:#222c59;stroke-width:8.77999973px"
       d="m 52.275,272.142 c -0.557,-0.983 -0.825,-2.105 -0.772,-3.234 0.629,-13.554 4.774,-102.788 5.75,-123.809 0.134,-2.874 -0.672,-5.715 -2.296,-8.091 -3.053,-4.468 -7.814,-11.436 -7.814,-11.436 l -7.95,-25.424 23.807,-1.95 23.807,1.95 -7.95,25.424 c 0,0 -4.761,6.968 -7.814,11.436 -1.624,2.376 -2.43,5.217 -2.296,8.091 0.976,21.021 5.121,110.255 5.75,123.809 0.053,1.129 -0.215,2.251 -0.772,3.234 -1.83,3.231 -6.173,10.898 -8.736,15.423 -0.406,0.717 -1.165,1.16 -1.989,1.16 -0.824,0 -1.583,-0.443 -1.989,-1.16 -2.563,-4.525 -6.906,-12.192 -8.736,-15.423 z" /><path
       id="path17"
       style="fill:#4a7d8f"
       d="m 52.275,272.142 c -0.557,-0.983 -0.825,-2.105 -0.772,-3.234 0.629,-13.554 4.774,-102.788 5.75,-123.809 0.134,-2.874 -0.672,-5.715 -2.296,-8.091 -3.053,-4.468 -7.814,-11.436 -7.814,-11.436 l -7.95,-25.424 23.807,-1.95 23.807,1.95 -7.95,25.424 c 0,0 -4.761,6.968 -7.814,11.436 -1.624,2.376 -2.43,5.217 -2.296,8.091 0.976,21.021 5.121,110.255 5.75,123.809 0.053,1.129 -0.215,2.251 -0.772,3.234 -1.83,3.231 -6.173,10.898 -8.736,15.423 -0.406,0.717 -1.165,1.16 -1.989,1.16 -0.824,0 -1.583,-0.443 -1.989,-1.16 -2.563,-4.525 -6.906,-12.192 -8.736,-15.423 z" /><clipPath
       id="_clip2"><path
         id="path19"
         d="m 52.275,272.142 c -0.557,-0.983 -0.825,-2.105 -0.772,-3.234 0.629,-13.554 4.774,-102.788 5.75,-123.809 0.134,-2.874 -0.672,-5.715 -2.296,-8.091 -3.053,-4.468 -7.814,-11.436 -7.814,-11.436 l -7.95,-25.424 23.807,-1.95 23.807,1.95 -7.95,25.424 c 0,0 -4.761,6.968 -7.814,11.436 -1.624,2.376 -2.43,5.217 -2.296,8.091 0.976,21.021 5.121,110.255 5.75,123.809 0.053,1.129 -0.215,2.251 -0.772,3.234 -1.83,3.231 -6.173,10.898 -8.736,15.423 -0.406,0.717 -1.165,1.16 -1.989,1.16 -0.824,0 -1.583,-0.443 -1.989,-1.16 -2.563,-4.525 -6.906,-12.192 -8.736,-15.423 z" /></clipPath><g
       id="g24"
       clip-path="url(#_clip2)"><path
         id="path22"
         style="fill:#70efe2;fill-opacity:0.58999999"
         d="m 74.578,270.637 c 0,0 -4.248,-4.166 -7.598,-7.451 -2.21,-2.168 -5.75,-2.168 -7.96,0 -3.35,3.285 -7.598,7.451 -7.598,7.451 L 63,291.077 Z" /></g><path
       id="path26"
       style="fill:none;stroke:#22112b;stroke-width:6.11000013px"
       d="m 59.924,53.465 c 1.919,-1.039 4.233,-1.039 6.152,0 1.931,1.047 4.367,2.367 6.054,3.281 1.253,0.679 2.072,1.95 2.173,3.371 0.286,4.038 0.852,12.021 0.852,12.021 L 63,67.887 50.845,72.138 c 0,0 0.566,-7.983 0.852,-12.021 0.101,-1.421 0.92,-2.692 2.173,-3.371 1.687,-0.914 4.123,-2.234 6.054,-3.281 z m 2.828,-8.267 c 0,0 5.036,-0.206 8.12,-0.332 1.305,-0.053 2.416,0.94 2.508,2.243 0.071,0.997 0.157,2.208 0.242,3.415 0.06,0.84 -0.418,1.626 -1.191,1.961 -0.772,0.334 -1.672,0.144 -2.244,-0.474 -0.368,-0.397 -0.746,-0.807 -1.128,-1.22 -1.562,-1.689 -3.758,-2.649 -6.059,-2.649 -2.301,0 -4.497,0.96 -6.059,2.649 -0.382,0.413 -0.76,0.823 -1.128,1.22 -0.572,0.618 -1.472,0.808 -2.244,0.474 -0.773,-0.335 -1.251,-1.121 -1.191,-1.961 0.085,-1.205 0.171,-2.414 0.242,-3.41 0.092,-1.305 1.206,-2.299 2.513,-2.243 2.946,0.127 7.619,0.327 7.619,0.327 z M 63,28.495 l 9.375,4.444 c 0,0 0.291,4.11 0.524,7.391 0.054,0.753 -0.324,1.47 -0.975,1.852 -0.65,0.381 -1.461,0.361 -2.091,-0.052 -0.739,-0.484 -1.532,-1.005 -2.308,-1.513 -2.748,-1.802 -6.302,-1.802 -9.05,0 -0.776,0.508 -1.569,1.029 -2.308,1.513 -0.63,0.413 -1.441,0.433 -2.091,0.052 -0.651,-0.382 -1.029,-1.099 -0.975,-1.852 0.233,-3.281 0.524,-7.391 0.524,-7.391 z" /><path
       id="path28"
       style="fill:#912123"
       d="m 59.924,53.465 c 1.919,-1.039 4.233,-1.039 6.152,0 1.931,1.047 4.367,2.367 6.054,3.281 1.253,0.679 2.072,1.95 2.173,3.371 0.286,4.038 0.852,12.021 0.852,12.021 L 63,67.887 50.845,72.138 c 0,0 0.566,-7.983 0.852,-12.021 0.101,-1.421 0.92,-2.692 2.173,-3.371 1.687,-0.914 4.123,-2.234 6.054,-3.281 z m 2.828,-8.267 c 0,0 5.036,-0.206 8.12,-0.332 1.305,-0.053 2.416,0.94 2.508,2.243 0.071,0.997 0.157,2.208 0.242,3.415 0.06,0.84 -0.418,1.626 -1.191,1.961 -0.772,0.334 -1.672,0.144 -2.244,-0.474 -0.368,-0.397 -0.746,-0.807 -1.128,-1.22 -1.562,-1.689 -3.758,-2.649 -6.059,-2.649 -2.301,0 -4.497,0.96 -6.059,2.649 -0.382,0.413 -0.76,0.823 -1.128,1.22 -0.572,0.618 -1.472,0.808 -2.244,0.474 -0.773,-0.335 -1.251,-1.121 -1.191,-1.961 0.085,-1.205 0.171,-2.414 0.242,-3.41 0.092,-1.305 1.206,-2.299 2.513,-2.243 2.946,0.127 7.619,0.327 7.619,0.327 z M 63,28.495 l 9.375,4.444 c 0,0 0.291,4.11 0.524,7.391 0.054,0.753 -0.324,1.47 -0.975,1.852 -0.65,0.381 -1.461,0.361 -2.091,-0.052 -0.739,-0.484 -1.532,-1.005 -2.308,-1.513 -2.748,-1.802 -6.302,-1.802 -9.05,0 -0.776,0.508 -1.569,1.029 -2.308,1.513 -0.63,0.413 -1.441,0.433 -2.091,0.052 -0.651,-0.382 -1.029,-1.099 -0.975,-1.852 0.233,-3.281 0.524,-7.391 0.524,-7.391 z" /><path
       id="path30"
       style="fill:none;stroke:#101526;stroke-width:12px"
       d="m 67.099,127.997 c -0.942,1.33 -2.47,2.121 -4.099,2.121 -1.629,0 -3.157,-0.791 -4.099,-2.121 -4.761,-6.728 -12.5,-17.665 -16.725,-23.634 -1.826,-2.58 -4.961,-3.895 -8.081,-3.39 -2.811,0.455 -5.737,0.929 -5.737,0.929 l -2.982,-3.628 -3.719,4.714 c 0,0 -4.708,0.762 -8.886,1.439 -1.192,0.193 -2.391,-0.306 -3.094,-1.288 -0.703,-0.982 -0.789,-2.278 -0.222,-3.345 2.001,-3.762 4.264,-8.016 4.264,-8.016 0,0 2.392,-5.154 4.115,-8.868 1.081,-2.33 3.248,-3.972 5.784,-4.384 7.533,-1.222 22.927,-3.719 22.927,-3.719 0,0 7.796,-6.811 12.656,-11.056 2.176,-1.901 5.422,-1.901 7.598,0 3.584,3.13 8.763,7.655 11.237,9.816 0.927,0.81 2.063,1.344 3.279,1.542 3.273,0.531 9.72,1.576 9.72,1.576 l 3.435,4.425 4.433,-3.148 c 0,0 1.696,0.275 3.479,0.564 2.536,0.412 4.703,2.054 5.784,4.384 1.723,3.714 4.115,8.868 4.115,8.868 0,0 2.263,4.254 4.264,8.016 0.567,1.067 0.481,2.363 -0.222,3.345 -0.703,0.982 -1.902,1.481 -3.094,1.288 -6.213,-1.006 -15.573,-2.522 -21.324,-3.454 -3.12,-0.505 -6.255,0.81 -8.081,3.39 -4.225,5.969 -11.964,16.906 -16.725,23.634 z" /><path
       id="path32"
       style="fill:#e19e3d"
       d="m 67.099,127.997 c -0.942,1.33 -2.47,2.121 -4.099,2.121 -1.629,0 -3.157,-0.791 -4.099,-2.121 -4.761,-6.728 -12.5,-17.665 -16.725,-23.634 -1.826,-2.58 -4.961,-3.895 -8.081,-3.39 -2.811,0.455 -5.737,0.929 -5.737,0.929 l -2.982,-3.628 -3.719,4.714 c 0,0 -4.708,0.762 -8.886,1.439 -1.192,0.193 -2.391,-0.306 -3.094,-1.288 -0.703,-0.982 -0.789,-2.278 -0.222,-3.345 2.001,-3.762 4.264,-8.016 4.264,-8.016 0,0 2.392,-5.154 4.115,-8.868 1.081,-2.33 3.248,-3.972 5.784,-4.384 7.533,-1.222 22.927,-3.719 22.927,-3.719 0,0 7.796,-6.811 12.656,-11.056 2.176,-1.901 5.422,-1.901 7.598,0 3.584,3.13 8.763,7.655 11.237,9.816 0.927,0.81 2.063,1.344 3.279,1.542 3.273,0.531 9.72,1.576 9.72,1.576 l 3.435,4.425 4.433,-3.148 c 0,0 1.696,0.275 3.479,0.564 2.536,0.412 4.703,2.054 5.784,4.384 1.723,3.714 4.115,8.868 4.115,8.868 0,0 2.263,4.254 4.264,8.016 0.567,1.067 0.481,2.363 -0.222,3.345 -0.703,0.982 -1.902,1.481 -3.094,1.288 -6.213,-1.006 -15.573,-2.522 -21.324,-3.454 -3.12,-0.505 -6.255,0.81 -8.081,3.39 -4.225,5.969 -11.964,16.906 -16.725,23.634 z" /><clipPath
       id="_clip3"><path
         id="path34"
         d="m 67.099,127.997 c -0.942,1.33 -2.47,2.121 -4.099,2.121 -1.629,0 -3.157,-0.791 -4.099,-2.121 -4.761,-6.728 -12.5,-17.665 -16.725,-23.634 -1.826,-2.58 -4.961,-3.895 -8.081,-3.39 -2.811,0.455 -5.737,0.929 -5.737,0.929 l -2.982,-3.628 -3.719,4.714 c 0,0 -4.708,0.762 -8.886,1.439 -1.192,0.193 -2.391,-0.306 -3.094,-1.288 -0.703,-0.982 -0.789,-2.278 -0.222,-3.345 2.001,-3.762 4.264,-8.016 4.264,-8.016 0,0 2.392,-5.154 4.115,-8.868 1.081,-2.33 3.248,-3.972 5.784,-4.384 7.533,-1.222 22.927,-3.719 22.927,-3.719 0,0 7.796,-6.811 12.656,-11.056 2.176,-1.901 5.422,-1.901 7.598,0 3.584,3.13 8.763,7.655 11.237,9.816 0.927,0.81 2.063,1.344 3.279,1.542 3.273,0.531 9.72,1.576 9.72,1.576 l 3.435,4.425 4.433,-3.148 c 0,0 1.696,0.275 3.479,0.564 2.536,0.412 4.703,2.054 5.784,4.384 1.723,3.714 4.115,8.868 4.115,8.868 0,0 2.263,4.254 4.264,8.016 0.567,1.067 0.481,2.363 -0.222,3.345 -0.703,0.982 -1.902,1.481 -3.094,1.288 -6.213,-1.006 -15.573,-2.522 -21.324,-3.454 -3.12,-0.505 -6.255,0.81 -8.081,3.39 -4.225,5.969 -11.964,16.906 -16.725,23.634 z" /></clipPath><g
       id="g39"
       clip-path="url(#_clip3)"><path
         id="path37"
         style="fill:#70efe2;fill-opacity:0.54000005"
         d="M -0.021,94.909 63,85.277 125.488,94.146 115.664,114.46 63,95.195 6.182,109.42 Z" /></g><path
       id="path41"
       style="fill:#d16b29"
       d="m 66.11,118.162 c -0.727,0.989 -1.882,1.573 -3.11,1.573 -1.228,0 -2.383,-0.584 -3.11,-1.573 -4.384,-5.958 -12.282,-16.691 -16.205,-22.022 -1.436,-1.952 -3.85,-2.927 -6.239,-2.519 -3.856,0.657 -9.754,1.663 -13.81,2.355 -0.944,0.161 -1.902,-0.194 -2.515,-0.93 -0.612,-0.737 -0.785,-1.744 -0.454,-2.642 0.753,-2.09 1.622,-4.457 2.22,-5.931 0.444,-1.096 1.456,-1.86 2.633,-1.986 4.993,-0.535 18.37,-3.97 23.057,-4.473 1.068,-0.114 2.063,-0.594 2.817,-1.359 0,0 5.561,-4.201 8.984,-6.787 1.552,-1.172 3.692,-1.172 5.244,0 3.423,2.586 8.984,6.787 8.984,6.787 0.754,0.765 1.749,1.245 2.817,1.359 4.687,0.503 18.064,3.938 23.057,4.473 1.177,0.126 2.189,0.89 2.633,1.986 0.598,1.474 1.467,3.841 2.22,5.931 0.33,0.899 0.157,1.905 -0.455,2.642 -0.612,0.736 -1.57,1.09 -2.514,0.929 -4.056,-0.691 -9.954,-1.697 -13.81,-2.354 -2.389,-0.408 -4.803,0.567 -6.239,2.519 -3.923,5.331 -11.821,16.064 -16.205,22.022 z" /><clipPath
       id="_clip4"><path
         id="path43"
         d="m 66.11,118.162 c -0.727,0.989 -1.882,1.573 -3.11,1.573 -1.228,0 -2.383,-0.584 -3.11,-1.573 -4.384,-5.958 -12.282,-16.691 -16.205,-22.022 -1.436,-1.952 -3.85,-2.927 -6.239,-2.519 -3.856,0.657 -9.754,1.663 -13.81,2.355 -0.944,0.161 -1.902,-0.194 -2.515,-0.93 -0.612,-0.737 -0.785,-1.744 -0.454,-2.642 0.753,-2.09 1.622,-4.457 2.22,-5.931 0.444,-1.096 1.456,-1.86 2.633,-1.986 4.993,-0.535 18.37,-3.97 23.057,-4.473 1.068,-0.114 2.063,-0.594 2.817,-1.359 0,0 5.561,-4.201 8.984,-6.787 1.552,-1.172 3.692,-1.172 5.244,0 3.423,2.586 8.984,6.787 8.984,6.787 0.754,0.765 1.749,1.245 2.817,1.359 4.687,0.503 18.064,3.938 23.057,4.473 1.177,0.126 2.189,0.89 2.633,1.986 0.598,1.474 1.467,3.841 2.22,5.931 0.33,0.899 0.157,1.905 -0.455,2.642 -0.612,0.736 -1.57,1.09 -2.514,0.929 -4.056,-0.691 -9.954,-1.697 -13.81,-2.354 -2.389,-0.408 -4.803,0.567 -6.239,2.519 -3.923,5.331 -11.821,16.064 -16.205,22.022 z" /></clipPath><g
       id="g48"
       clip-path="url(#_clip4)"><path
         id="path46"
         style="fill:#70efe2;fill-opacity:0.58999999"
         d="M 48.577,80.014 63,94.277 77.301,80 63,67.887 Z" /></g><path
       id="path50"
       style="fill:#814045"
       d="m 63.087,70.99 0.086,0.002 0.086,0.005 0.087,0.006 0.086,0.007 0.086,0.01 0.086,0.011 0.086,0.013 0.085,0.014 0.086,0.017 0.085,0.018 0.085,0.019 0.084,0.022 0.084,0.023 0.084,0.025 0.083,0.027 0.083,0.028 0.082,0.03 0.082,0.032 0.082,0.033 0.08,0.035 0.081,0.037 0.079,0.039 0.08,0.04 0.078,0.042 0.078,0.044 0.077,0.046 0.076,0.047 0.076,0.049 0.074,0.05 0.074,0.053 0.074,0.054 8.984,6.787 0.072,0.071 0.073,0.069 0.074,0.068 0.075,0.065 0.077,0.064 0.078,0.063 0.079,0.06 0.08,0.059 0.082,0.057 0.083,0.055 0.084,0.053 0.084,0.052 0.086,0.05 0.087,0.047 0.088,0.046 0.089,0.044 0.09,0.043 0.09,0.04 0.092,0.038 0.092,0.036 0.093,0.035 0.094,0.032 0.095,0.031 0.095,0.028 0.096,0.026 0.097,0.025 0.097,0.022 0.098,0.02 0.099,0.018 0.098,0.017 0.1,0.013 0.1,0.012 0.226,0.026 0.238,0.03 0.25,0.034 0.262,0.037 0.273,0.042 0.284,0.045 0.294,0.049 0.305,0.052 0.313,0.055 0.323,0.058 0.332,0.062 0.34,0.064 0.349,0.067 0.356,0.069 0.363,0.072 0.37,0.074 0.376,0.076 0.383,0.078 0.782,0.163 0.802,0.168 0.818,0.174 0.831,0.179 0.842,0.181 1.702,0.369 1.705,0.37 0.847,0.182 0.837,0.179 0.827,0.175 0.811,0.17 0.794,0.163 0.389,0.079 0.383,0.077 0.378,0.075 0.371,0.073 0.364,0.07 0.357,0.068 0.349,0.065 0.342,0.062 0.333,0.06 0.324,0.056 0.315,0.053 0.306,0.05 0.296,0.046 0.285,0.043 0.275,0.039 0.263,0.036 0.252,0.031 0.24,0.027 0.055,0.007 0.055,0.007 0.055,0.008 0.054,0.009 0.054,0.01 0.054,0.011 0.053,0.012 0.053,0.013 0.053,0.013 0.052,0.015 0.052,0.015 0.052,0.016 0.052,0.017 0.051,0.018 0.05,0.019 0.051,0.02 0.05,0.02 0.049,0.021 0.049,0.022 0.049,0.023 0.048,0.023 0.048,0.025 0.047,0.025 0.047,0.026 0.047,0.027 0.046,0.027 0.045,0.028 0.045,0.029 0.045,0.03 0.044,0.03 0.043,0.031 0.043,0.032 0.043,0.033 0.042,0.033 0.041,0.034 0.041,0.035 0.04,0.035 0.04,0.036 0.039,0.037 0.038,0.037 0.038,0.038 0.037,0.039 0.037,0.039 0.036,0.04 0.035,0.041 0.035,0.041 0.034,0.042 0.033,0.042 0.032,0.043 0.032,0.044 0.032,0.044 0.03,0.044 0.03,0.046 0.029,0.046 0.028,0.046 0.028,0.047 0.027,0.048 0.026,0.048 0.025,0.048 0.024,0.05 0.024,0.049 0.023,0.05 0.022,0.051 0.021,0.051 0.115,0.287 0.121,0.305 0.127,0.324 0.13,0.339 0.135,0.353 0.139,0.365 0.141,0.376 0.144,0.385 0.146,0.392 0.146,0.398 0.296,0.806 0.293,0.806 0.287,0.795 0.029,0.084 0.027,0.086 0.023,0.085 0.021,0.086 0.018,0.087 0.015,0.086 0.012,0.087 0.009,0.087 0.007,0.087 0.003,0.087 0.001,0.088 -0.003,0.086 -0.004,0.087 -0.008,0.087 -0.011,0.086 -0.013,0.086 -0.016,0.085 -0.019,0.085 -0.022,0.084 -0.024,0.083 -0.027,0.083 -0.03,0.082 -0.032,0.081 -0.035,0.08 -0.038,0.078 -0.04,0.078 -0.044,0.077 -0.045,0.075 -0.049,0.075 -0.05,0.072 -0.054,0.072 -0.056,0.07 -0.058,0.067 -0.061,0.066 -0.062,0.063 -0.064,0.061 -0.066,0.059 -0.067,0.057 -0.07,0.053 -0.07,0.052 -0.073,0.049 -0.073,0.047 -0.075,0.044 -0.077,0.042 -0.077,0.039 -0.079,0.036 -0.08,0.034 -0.081,0.032 -0.082,0.029 -0.082,0.026 -0.084,0.023 -0.084,0.021 -0.085,0.018 -0.086,0.015 -0.086,0.013 -0.087,0.009 -0.087,0.007 -0.088,0.004 -0.088,0.001 -0.088,-0.001 -0.089,-0.005 -0.088,-0.008 -0.089,-0.01 -0.088,-0.014 -13.81,-2.354 -0.112,-0.019 -0.112,-0.016 -0.112,-0.014 -0.112,-0.012 -0.112,-0.01 -0.112,-0.008 -0.112,-0.006 -0.111,-0.004 -0.112,-0.002 -0.111,-0.001 -0.111,0.002 -0.111,0.004 -0.111,0.005 -0.11,0.007 -0.11,0.01 -0.11,0.011 -0.109,0.013 -0.109,0.015 -0.109,0.017 -0.108,0.018 -0.108,0.021 -0.108,0.022 -0.107,0.024 -0.106,0.026 -0.106,0.028 -0.106,0.029 -0.105,0.032 -0.104,0.033 -0.104,0.034 -0.103,0.037 -0.102,0.038 -0.102,0.041 -0.101,0.041 -0.1,0.044 -0.1,0.045 -0.099,0.047 -0.098,0.049 -0.097,0.05 -0.096,0.052 -0.096,0.054 -0.094,0.055 -0.094,0.057 -0.093,0.058 -0.092,0.061 -0.091,0.061 -0.09,0.064 -0.088,0.065 -0.088,0.066 -0.087,0.069 -0.086,0.069 -0.084,0.072 -0.084,0.073 -0.082,0.074 -0.081,0.076 -0.08,0.077 -0.079,0.079 -0.077,0.081 -0.076,0.082 -0.075,0.083 -0.074,0.085 -0.072,0.087 -0.071,0.088 -0.069,0.089 -0.068,0.091 -16.205,22.022 -0.034,0.046 -0.035,0.046 -0.036,0.045 -0.036,0.044 -0.037,0.043 -0.037,0.043 -0.038,0.043 -0.039,0.042 -0.039,0.041 -0.04,0.04 -0.04,0.04 -0.041,0.04 -0.041,0.038 -0.042,0.038 -0.042,0.037 -0.043,0.037 -0.043,0.036 -0.044,0.035 -0.044,0.035 -0.045,0.034 -0.045,0.034 -0.046,0.032 -0.046,0.032 -0.047,0.031 -0.047,0.031 -0.047,0.03 -0.048,0.029 -0.048,0.029 -0.049,0.027 -0.049,0.027 -0.05,0.027 -0.049,0.025 -0.05,0.025 -0.051,0.025 -0.051,0.023 -0.051,0.023 -0.052,0.022 -0.051,0.021 -0.053,0.02 -0.052,0.02 -0.053,0.019 -0.053,0.018 -0.053,0.018 -0.054,0.016 -0.054,0.016 -0.054,0.015 -0.055,0.015 -0.054,0.013 -0.055,0.013 -0.055,0.012 -0.056,0.011 -0.055,0.011 -0.056,0.009 -0.056,0.009 -0.056,0.008 -0.057,0.007 -0.056,0.006 -0.057,0.006 -0.057,0.004 -0.057,0.004 -0.057,0.003 -0.057,0.002 -0.057,0.002 H 63 62.942 l -0.057,-0.002 -0.057,-0.002 -0.057,-0.003 -0.057,-0.004 -0.057,-0.004 -0.057,-0.006 -0.056,-0.006 -0.057,-0.007 -0.056,-0.008 -0.056,-0.009 -0.056,-0.009 -0.055,-0.011 -0.056,-0.011 -0.055,-0.012 -0.055,-0.013 -0.054,-0.013 -0.055,-0.015 -0.054,-0.015 -0.054,-0.016 -0.054,-0.016 -0.053,-0.018 -0.053,-0.018 -0.053,-0.019 -0.052,-0.02 -0.053,-0.02 -0.051,-0.021 -0.052,-0.022 -0.051,-0.023 -0.051,-0.023 -0.051,-0.025 -0.05,-0.025 -0.049,-0.025 -0.05,-0.027 -0.049,-0.027 -0.049,-0.027 -0.048,-0.029 -0.048,-0.029 -0.047,-0.03 -0.047,-0.031 -0.047,-0.031 -0.046,-0.032 -0.046,-0.032 -0.045,-0.034 -0.045,-0.034 -0.044,-0.035 -0.044,-0.035 -0.043,-0.036 -0.043,-0.037 -0.042,-0.037 -0.042,-0.038 -0.041,-0.038 -0.041,-0.04 -0.04,-0.04 -0.04,-0.04 -0.039,-0.041 -0.039,-0.042 -0.038,-0.043 -0.037,-0.043 -0.037,-0.043 -0.036,-0.044 -0.036,-0.045 -0.035,-0.046 L 59.89,118.162 43.685,96.14 43.617,96.049 43.548,95.96 43.477,95.872 43.405,95.785 43.331,95.7 43.256,95.617 43.18,95.535 43.103,95.454 43.024,95.375 42.944,95.298 42.863,95.222 42.781,95.148 42.697,95.075 42.613,95.003 42.527,94.934 42.44,94.865 42.352,94.799 42.264,94.734 42.174,94.67 42.083,94.609 41.991,94.548 41.898,94.49 41.804,94.433 41.71,94.378 l -0.096,-0.054 -0.096,-0.052 -0.097,-0.05 -0.098,-0.049 -0.099,-0.047 -0.1,-0.045 -0.1,-0.044 -0.101,-0.041 -0.102,-0.041 -0.102,-0.038 -0.103,-0.037 -0.104,-0.034 -0.104,-0.033 -0.105,-0.032 -0.106,-0.029 -0.106,-0.028 -0.106,-0.026 -0.107,-0.024 -0.108,-0.022 -0.108,-0.021 -0.108,-0.018 -0.109,-0.017 -0.109,-0.015 -0.109,-0.013 -0.11,-0.011 -0.11,-0.01 -0.11,-0.007 -0.111,-0.005 -0.111,-0.004 -0.111,-0.002 -0.111,0.001 -0.112,0.002 -0.111,0.004 -0.112,0.006 -0.112,0.008 -0.112,0.01 -0.112,0.012 -0.112,0.014 -0.112,0.016 -0.112,0.019 -13.81,2.355 -0.088,0.013 -0.089,0.011 -0.088,0.007 -0.089,0.005 -0.088,0.002 -0.088,-10e-4 -0.088,-0.004 -0.087,-0.007 -0.087,-0.01 L 22.758,95.98 22.672,95.964 22.587,95.946 22.503,95.926 22.419,95.902 22.336,95.876 22.254,95.847 22.173,95.816 22.094,95.782 22.015,95.745 21.937,95.706 21.861,95.665 21.786,95.62 21.712,95.574 21.64,95.525 21.569,95.473 21.5,95.419 21.432,95.363 21.367,95.304 21.302,95.243 21.24,95.18 21.18,95.114 21.121,95.046 21.065,94.976 21.012,94.905 20.961,94.832 20.912,94.758 20.867,94.682 20.824,94.606 20.783,94.528 20.746,94.449 20.71,94.369 20.678,94.288 20.648,94.206 20.621,94.123 20.597,94.04 20.575,93.956 20.556,93.871 20.54,93.786 20.527,93.7 20.516,93.614 20.509,93.527 20.504,93.44 20.502,93.354 v -0.088 l 0.004,-0.087 0.006,-0.087 0.009,-0.087 0.012,-0.087 0.015,-0.087 0.018,-0.086 0.021,-0.086 0.023,-0.086 0.027,-0.085 0.03,-0.084 0.287,-0.795 0.293,-0.807 0.295,-0.805 0.147,-0.398 0.146,-0.392 0.144,-0.385 0.141,-0.376 0.139,-0.365 0.135,-0.353 0.13,-0.339 0.127,-0.324 0.121,-0.305 0.115,-0.287 0.021,-0.051 0.022,-0.051 0.023,-0.05 0.024,-0.049 0.024,-0.05 0.025,-0.048 0.026,-0.048 0.027,-0.048 0.028,-0.047 0.028,-0.046 0.029,-0.046 0.03,-0.046 0.03,-0.044 0.032,-0.044 0.032,-0.044 0.032,-0.043 0.033,-0.042 0.034,-0.042 0.035,-0.041 0.035,-0.041 0.036,-0.04 0.037,-0.039 0.037,-0.039 0.038,-0.038 0.038,-0.037 0.039,-0.037 0.04,-0.036 0.04,-0.035 0.041,-0.035 0.041,-0.034 0.042,-0.033 0.043,-0.033 0.043,-0.032 0.043,-0.031 0.044,-0.03 0.045,-0.03 0.045,-0.029 0.045,-0.028 0.046,-0.027 0.047,-0.027 0.047,-0.026 0.047,-0.025 0.048,-0.025 0.048,-0.023 0.049,-0.023 0.049,-0.022 0.049,-0.021 0.05,-0.02 0.051,-0.02 0.05,-0.019 0.051,-0.018 0.052,-0.017 0.052,-0.016 0.052,-0.015 0.052,-0.015 0.053,-0.013 0.053,-0.013 0.053,-0.012 0.054,-0.011 0.054,-0.01 0.054,-0.009 0.055,-0.008 0.055,-0.007 0.055,-0.007 0.24,-0.027 0.252,-0.031 0.263,-0.036 0.275,-0.039 0.285,-0.043 0.296,-0.046 0.306,-0.05 0.315,-0.053 0.324,-0.056 0.333,-0.06 0.342,-0.062 0.349,-0.065 0.357,-0.068 0.364,-0.07 0.371,-0.073 0.378,-0.075 0.383,-0.077 0.389,-0.079 0.794,-0.163 0.811,-0.17 0.827,-0.175 0.837,-0.179 0.847,-0.182 1.705,-0.37 1.702,-0.369 0.842,-0.181 0.831,-0.179 0.818,-0.174 0.802,-0.168 0.782,-0.163 0.383,-0.078 0.376,-0.076 0.37,-0.074 0.363,-0.072 0.356,-0.069 0.349,-0.067 0.34,-0.064 0.332,-0.062 0.323,-0.058 0.313,-0.055 0.305,-0.052 0.294,-0.049 0.284,-0.045 0.273,-0.042 0.262,-0.037 0.25,-0.034 0.238,-0.03 0.226,-0.026 0.1,-0.012 0.1,-0.013 0.098,-0.017 0.099,-0.018 0.098,-0.02 0.097,-0.022 0.097,-0.025 0.096,-0.026 0.095,-0.028 0.095,-0.031 0.094,-0.032 0.093,-0.035 0.092,-0.036 0.092,-0.038 0.09,-0.04 0.09,-0.043 0.089,-0.044 0.088,-0.046 0.087,-0.047 0.086,-0.05 0.084,-0.052 0.084,-0.053 0.083,-0.055 0.082,-0.057 0.08,-0.059 0.079,-0.06 0.078,-0.063 0.077,-0.064 0.075,-0.065 0.074,-0.068 0.073,-0.069 0.072,-0.071 8.984,-6.787 0.074,-0.054 0.074,-0.053 0.074,-0.05 0.076,-0.049 0.076,-0.047 0.077,-0.046 0.078,-0.044 0.078,-0.042 0.08,-0.04 0.079,-0.039 0.081,-0.037 0.08,-0.035 0.082,-0.033 0.082,-0.032 0.082,-0.03 0.083,-0.028 0.083,-0.027 0.084,-0.025 0.084,-0.023 0.084,-0.022 0.085,-0.019 0.085,-0.018 0.086,-0.017 0.085,-0.014 0.086,-0.013 0.086,-0.011 0.086,-0.01 0.086,-0.007 0.087,-0.006 0.086,-0.005 L 62.913,70.99 63,70.989 Z m -0.091,4.164 -0.004,0.001 h -0.004 -0.004 -0.003 l -0.004,0.001 h -0.004 l -0.004,10e-4 h -0.003 l -0.004,0.001 -0.003,0.001 -0.004,10e-4 -0.003,0.001 -0.004,0.001 -0.003,10e-4 -0.003,0.001 -0.004,0.001 -0.003,10e-4 -0.003,0.001 -0.003,0.001 -0.003,0.002 -0.003,0.001 -0.004,0.002 -0.003,0.001 -0.003,0.002 -0.003,0.002 -0.003,0.002 -0.004,0.002 -0.003,0.002 -0.003,0.002 -0.004,0.003 -0.021,0.015 -8.744,6.606 0.096,-0.095 -0.138,0.131 -0.14,0.127 -0.143,0.125 -0.146,0.121 -0.147,0.118 -0.151,0.115 -0.152,0.112 -0.155,0.107 -0.156,0.105 -0.159,0.101 -0.161,0.098 -0.163,0.094 -0.165,0.091 -0.166,0.087 -0.169,0.083 -0.17,0.08 -0.172,0.076 -0.173,0.073 -0.175,0.069 -0.177,0.065 -0.178,0.061 -0.179,0.058 -0.181,0.054 -0.182,0.05 -0.183,0.046 -0.185,0.042 -0.185,0.039 -0.186,0.034 -0.188,0.03 -0.188,0.027 -0.154,0.018 -0.212,0.024 -0.194,0.024 -0.212,0.029 -0.228,0.033 -0.243,0.037 -0.257,0.041 -0.27,0.044 -0.283,0.049 -0.295,0.052 -0.306,0.055 -0.316,0.058 -0.326,0.062 -0.336,0.064 -0.344,0.067 -0.353,0.07 -0.361,0.072 -0.368,0.075 -0.373,0.076 -0.77,0.16 -0.791,0.166 -0.81,0.173 -0.826,0.177 -0.837,0.181 -1.701,0.368 -1.708,0.37 -0.852,0.184 -0.845,0.18 -0.835,0.177 -0.823,0.172 -0.805,0.166 -0.399,0.081 -0.393,0.079 -0.387,0.077 -0.382,0.074 -0.376,0.073 -0.37,0.07 -0.364,0.068 -0.357,0.065 -0.35,0.063 -0.344,0.059 -0.336,0.057 -0.329,0.054 -0.322,0.051 -0.315,0.047 -0.307,0.044 -0.301,0.04 -0.006,0.001 -0.012,0.028 -0.119,0.307 -0.126,0.325 -0.13,0.341 -0.135,0.355 -0.138,0.367 -0.141,0.377 -0.143,0.385 -0.143,0.39 -0.002,0.005 11.314,-1.93 0.167,-0.026 0.184,-0.027 0.185,-0.023 0.184,-0.02 0.185,-0.017 0.184,-0.013 0.185,-0.01 0.184,-0.007 0.184,-0.004 h 0.184 l 0.183,0.003 0.183,0.006 0.183,0.009 0.182,0.012 0.182,0.015 0.181,0.019 0.181,0.021 0.18,0.025 0.18,0.027 0.178,0.031 0.178,0.034 0.178,0.037 0.176,0.04 0.176,0.042 0.175,0.046 0.174,0.049 0.173,0.051 0.172,0.055 0.171,0.057 0.17,0.061 0.169,0.063 0.168,0.066 0.166,0.069 0.166,0.072 0.164,0.074 0.163,0.078 0.161,0.08 0.161,0.083 0.159,0.086 0.157,0.088 0.156,0.091 0.155,0.094 0.153,0.097 0.152,0.099 0.15,0.102 0.148,0.105 0.147,0.107 0.145,0.11 0.143,0.113 0.142,0.115 0.139,0.118 0.138,0.12 0.136,0.123 0.134,0.125 0.132,0.128 0.13,0.131 0.127,0.133 0.126,0.135 0.124,0.138 0.121,0.14 0.119,0.142 0.117,0.145 0.114,0.148 0.101,0.134 15.971,21.705 15.971,-21.705 0.101,-0.135 0.114,-0.147 0.117,-0.145 0.119,-0.142 0.121,-0.14 0.124,-0.138 0.126,-0.135 0.127,-0.133 0.13,-0.131 0.132,-0.128 0.134,-0.125 0.136,-0.123 0.138,-0.12 0.139,-0.118 0.142,-0.115 0.143,-0.113 0.145,-0.11 0.147,-0.107 0.148,-0.105 0.15,-0.102 0.152,-0.099 0.153,-0.097 0.155,-0.094 0.156,-0.091 0.157,-0.088 0.159,-0.086 0.16,-0.083 0.162,-0.08 0.163,-0.078 0.164,-0.074 0.166,-0.072 0.167,-0.069 0.167,-0.066 0.169,-0.063 0.17,-0.061 0.171,-0.057 0.172,-0.055 0.173,-0.051 0.174,-0.049 0.175,-0.046 0.176,-0.042 0.176,-0.04 0.177,-0.037 0.179,-0.034 0.179,-0.031 0.179,-0.027 0.18,-0.025 0.181,-0.021 0.181,-0.019 0.182,-0.015 0.182,-0.012 0.183,-0.009 0.183,-0.006 0.183,-0.003 h 0.184 l 0.184,0.004 0.184,0.007 0.185,0.01 0.184,0.013 0.185,0.017 0.184,0.02 0.185,0.023 0.185,0.027 0.166,0.026 11.314,1.929 -0.002,-0.005 -0.144,-0.39 -0.143,-0.384 -0.14,-0.377 -0.138,-0.367 -0.135,-0.355 -0.13,-0.341 L 99.592,88.896 99.473,88.589 99.461,88.561 99.455,88.56 99.154,88.52 98.847,88.476 98.532,88.429 98.21,88.378 97.881,88.324 97.545,88.267 97.201,88.208 96.851,88.145 96.494,88.08 96.13,88.012 95.76,87.942 95.384,87.869 95.002,87.795 94.615,87.718 94.222,87.639 93.823,87.558 93.018,87.392 92.195,87.22 91.36,87.043 90.515,86.863 89.663,86.679 87.955,86.309 86.254,85.941 85.417,85.76 84.591,85.583 83.781,85.41 82.99,85.244 82.22,85.084 81.847,85.008 81.479,84.933 81.118,84.861 80.765,84.791 80.421,84.724 80.085,84.66 79.759,84.598 79.443,84.54 79.137,84.485 78.842,84.433 78.559,84.384 78.289,84.34 78.032,84.299 77.789,84.262 77.561,84.229 77.349,84.2 77.155,84.176 76.943,84.152 76.789,84.134 76.601,84.107 76.414,84.077 76.227,84.043 76.042,84.004 75.857,83.962 75.674,83.916 75.492,83.866 75.311,83.812 75.132,83.754 74.954,83.693 74.777,83.628 74.602,83.559 74.429,83.486 74.257,83.41 74.087,83.33 73.918,83.247 73.752,83.16 73.587,83.069 73.424,82.975 73.263,82.877 73.104,82.776 72.948,82.671 72.793,82.563 72.64,82.452 72.49,82.337 72.343,82.22 72.197,82.098 72.054,81.973 71.914,81.846 71.776,81.715 71.872,81.81 63.128,75.204 63.107,75.189 63.103,75.186 63.1,75.184 63.097,75.182 63.093,75.18 63.09,75.178 63.087,75.176 63.084,75.174 63.081,75.173 63.077,75.171 63.074,75.17 63.071,75.168 63.068,75.167 63.065,75.166 63.062,75.165 63.058,75.164 63.055,75.163 63.052,75.162 63.048,75.161 63.045,75.16 63.041,75.159 63.038,75.158 63.034,75.157 H 63.031 L 63.027,75.156 H 63.023 L 63.019,75.155 H 63.016 63.012 63.008 L 63.004,75.154 H 63 Z" /><path
       id="path52"
       style="fill:#c02e31"
       d="m 61.372,85.177 c 0.43,-0.435 1.016,-0.68 1.628,-0.68 0.612,0 1.198,0.245 1.628,0.68 1.377,1.391 3.362,3.395 4.873,4.922 1.258,1.27 1.434,3.256 0.42,4.729 -1.182,1.715 -2.768,4.016 -4.123,5.983 -0.634,0.92 -1.68,1.47 -2.798,1.47 -1.118,0 -2.164,-0.55 -2.798,-1.47 -1.355,-1.967 -2.941,-4.268 -4.123,-5.983 -1.014,-1.473 -0.838,-3.459 0.42,-4.729 1.511,-1.527 3.496,-3.531 4.873,-4.922 z" /><clipPath
       id="_clip5"><path
         id="path54"
         d="m 61.372,85.177 c 0.43,-0.435 1.016,-0.68 1.628,-0.68 0.612,0 1.198,0.245 1.628,0.68 1.377,1.391 3.362,3.395 4.873,4.922 1.258,1.27 1.434,3.256 0.42,4.729 -1.182,1.715 -2.768,4.016 -4.123,5.983 -0.634,0.92 -1.68,1.47 -2.798,1.47 -1.118,0 -2.164,-0.55 -2.798,-1.47 -1.355,-1.967 -2.941,-4.268 -4.123,-5.983 -1.014,-1.473 -0.838,-3.459 0.42,-4.729 1.511,-1.527 3.496,-3.531 4.873,-4.922 z" /></clipPath><g
       id="g59"
       clip-path="url(#_clip5)"><path
         id="path57"
         style="fill:#70efe2;fill-opacity:0.58999999"
         d="m 71.67,92.289 c 0,0 -3.141,1.581 -5.642,2.839 -1.905,0.959 -4.151,0.959 -6.056,0 C 57.471,93.87 54.33,92.289 54.33,92.289 L 63,106.771 Z" /></g><path
       id="path61"
       style="fill:none;stroke:#121631;stroke-width:7.44000006px"
       d="M 63,33.835 49.902,29.736 C 49.31,29.551 48.775,29.219 48.346,28.771 47.912,28.318 46.632,26.982 46.632,26.982 l 1.233,-2.913 -3.606,0.435 c 0,0 -0.011,-0.012 -0.033,-0.035 -1.257,-1.313 -2.01,-3.028 -2.126,-4.842 -0.109,-1.711 -0.249,-3.906 -0.363,-5.698 -0.049,-0.771 0.271,-1.52 0.861,-2.019 0.591,-0.499 1.383,-0.688 2.135,-0.511 1.657,0.391 3.683,0.869 5.384,1.27 2.205,0.521 4.525,-0.087 6.192,-1.621 1.459,-1.342 3.241,-2.982 4.599,-4.232 1.182,-1.088 3.002,-1.088 4.184,0 1.358,1.25 3.14,2.89 4.599,4.232 1.667,1.534 3.987,2.142 6.192,1.621 1.701,-0.401 3.727,-0.879 5.384,-1.27 0.752,-0.177 1.544,0.012 2.135,0.511 0.59,0.499 0.91,1.248 0.861,2.019 -0.114,1.792 -0.254,3.987 -0.363,5.698 -0.116,1.814 -0.869,3.529 -2.126,4.842 -1.39,1.452 -3.175,3.316 -4.12,4.302 -0.429,0.448 -0.964,0.78 -1.556,0.965 C 73.002,30.705 63,33.835 63,33.835 Z" /><path
       id="path63"
       style="fill:#e19e3d"
       d="M 63,33.835 49.902,29.736 C 49.31,29.551 48.775,29.219 48.346,28.771 47.912,28.318 46.632,26.982 46.632,26.982 l 1.233,-2.913 -3.606,0.435 c 0,0 -0.011,-0.012 -0.033,-0.035 -1.257,-1.313 -2.01,-3.028 -2.126,-4.842 -0.109,-1.711 -0.249,-3.906 -0.363,-5.698 -0.049,-0.771 0.271,-1.52 0.861,-2.019 0.591,-0.499 1.383,-0.688 2.135,-0.511 1.657,0.391 3.683,0.869 5.384,1.27 2.205,0.521 4.525,-0.087 6.192,-1.621 1.459,-1.342 3.241,-2.982 4.599,-4.232 1.182,-1.088 3.002,-1.088 4.184,0 1.358,1.25 3.14,2.89 4.599,4.232 1.667,1.534 3.987,2.142 6.192,1.621 1.701,-0.401 3.727,-0.879 5.384,-1.27 0.752,-0.177 1.544,0.012 2.135,0.511 0.59,0.499 0.91,1.248 0.861,2.019 -0.114,1.792 -0.254,3.987 -0.363,5.698 -0.116,1.814 -0.869,3.529 -2.126,4.842 -1.39,1.452 -3.175,3.316 -4.12,4.302 -0.429,0.448 -0.964,0.78 -1.556,0.965 C 73.002,30.705 63,33.835 63,33.835 Z" /><clipPath
       id="_clip6"><path
         id="path65"
         d="M 63,33.835 49.902,29.736 C 49.31,29.551 48.775,29.219 48.346,28.771 47.912,28.318 46.632,26.982 46.632,26.982 l 1.233,-2.913 -3.606,0.435 c 0,0 -0.011,-0.012 -0.033,-0.035 -1.257,-1.313 -2.01,-3.028 -2.126,-4.842 -0.109,-1.711 -0.249,-3.906 -0.363,-5.698 -0.049,-0.771 0.271,-1.52 0.861,-2.019 0.591,-0.499 1.383,-0.688 2.135,-0.511 1.657,0.391 3.683,0.869 5.384,1.27 2.205,0.521 4.525,-0.087 6.192,-1.621 1.459,-1.342 3.241,-2.982 4.599,-4.232 1.182,-1.088 3.002,-1.088 4.184,0 1.358,1.25 3.14,2.89 4.599,4.232 1.667,1.534 3.987,2.142 6.192,1.621 1.701,-0.401 3.727,-0.879 5.384,-1.27 0.752,-0.177 1.544,0.012 2.135,0.511 0.59,0.499 0.91,1.248 0.861,2.019 -0.114,1.792 -0.254,3.987 -0.363,5.698 -0.116,1.814 -0.869,3.529 -2.126,4.842 -1.39,1.452 -3.175,3.316 -4.12,4.302 -0.429,0.448 -0.964,0.78 -1.556,0.965 C 73.002,30.705 63,33.835 63,33.835 Z" /></clipPath><g
       id="g70"
       clip-path="url(#_clip6)"><path
         id="path68"
         style="fill:#70efe2;fill-opacity:0.58999999"
         d="M 39.654,32.953 63,21.127 85.05,33.334 63,39.265 Z" /></g><path
       id="path72"
       style="fill:none;stroke:#8a463a;stroke-width:5.67000008px"
       d="m 72.638,24.59 c -0.942,1.13 -2.336,1.783 -3.806,1.783 -3.101,0 -8.563,0 -11.664,0 -1.47,0 -2.864,-0.653 -3.806,-1.783 -0.581,-0.697 -1.264,-1.517 -1.92,-2.304 -0.4,-0.48 -0.46,-1.157 -0.15,-1.7 0.309,-0.542 0.923,-0.835 1.54,-0.735 0.753,0.122 1.512,0.245 2.173,0.352 1.241,0.202 2.496,-0.272 3.295,-1.244 0.827,-1.006 1.914,-2.329 2.834,-3.449 0.459,-0.558 1.143,-0.882 1.866,-0.882 0.723,0 1.407,0.324 1.866,0.882 0.92,1.12 2.007,2.443 2.834,3.449 0.799,0.972 2.054,1.446 3.295,1.244 0.661,-0.107 1.42,-0.23 2.173,-0.352 0.617,-0.1 1.231,0.193 1.54,0.735 0.31,0.543 0.25,1.22 -0.15,1.7 -0.656,0.787 -1.339,1.607 -1.92,2.304 z" /><path
       id="path74"
       style="fill:#d16b29"
       d="m 72.638,24.59 c -0.942,1.13 -2.336,1.783 -3.806,1.783 -3.101,0 -8.563,0 -11.664,0 -1.47,0 -2.864,-0.653 -3.806,-1.783 -0.581,-0.697 -1.264,-1.517 -1.92,-2.304 -0.4,-0.48 -0.46,-1.157 -0.15,-1.7 0.309,-0.542 0.923,-0.835 1.54,-0.735 0.753,0.122 1.512,0.245 2.173,0.352 1.241,0.202 2.496,-0.272 3.295,-1.244 0.827,-1.006 1.914,-2.329 2.834,-3.449 0.459,-0.558 1.143,-0.882 1.866,-0.882 0.723,0 1.407,0.324 1.866,0.882 0.92,1.12 2.007,2.443 2.834,3.449 0.799,0.972 2.054,1.446 3.295,1.244 0.661,-0.107 1.42,-0.23 2.173,-0.352 0.617,-0.1 1.231,0.193 1.54,0.735 0.31,0.543 0.25,1.22 -0.15,1.7 -0.656,0.787 -1.339,1.607 -1.92,2.304 z" /><clipPath
       id="_clip7"><path
         id="path76"
         d="m 72.638,24.59 c -0.942,1.13 -2.336,1.783 -3.806,1.783 -3.101,0 -8.563,0 -11.664,0 -1.47,0 -2.864,-0.653 -3.806,-1.783 -0.581,-0.697 -1.264,-1.517 -1.92,-2.304 -0.4,-0.48 -0.46,-1.157 -0.15,-1.7 0.309,-0.542 0.923,-0.835 1.54,-0.735 0.753,0.122 1.512,0.245 2.173,0.352 1.241,0.202 2.496,-0.272 3.295,-1.244 0.827,-1.006 1.914,-2.329 2.834,-3.449 0.459,-0.558 1.143,-0.882 1.866,-0.882 0.723,0 1.407,0.324 1.866,0.882 0.92,1.12 2.007,2.443 2.834,3.449 0.799,0.972 2.054,1.446 3.295,1.244 0.661,-0.107 1.42,-0.23 2.173,-0.352 0.617,-0.1 1.231,0.193 1.54,0.735 0.31,0.543 0.25,1.22 -0.15,1.7 -0.656,0.787 -1.339,1.607 -1.92,2.304 z" /></clipPath><g
       id="g81"
       clip-path="url(#_clip7)"><path
         id="path79"
         style="fill:#70efe2;fill-opacity:0.58999999"
         d="m 61.081,20.968 c 0.461,0.664 1.202,1.079 2.009,1.123 0.807,0.044 1.59,-0.286 2.121,-0.896 2.414,-2.772 5.941,-6.823 5.941,-6.823 L 55.723,13.247 c 0,0 3.202,4.614 5.358,7.721 z" /></g></g></svg>