<?xml version="1.0" encoding="UTF-8" standalone="no"?>
<svg
   xmlns:dc="http://purl.org/dc/elements/1.1/"
   xmlns:cc="http://creativecommons.org/ns#"
   xmlns:rdf="http://www.w3.org/1999/02/22-rdf-syntax-ns#"
   xmlns:svg="http://www.w3.org/2000/svg"
   xmlns="http://www.w3.org/2000/svg"
   id="svg7"
   style="clip-rule:evenodd;fill-rule:evenodd;stroke-linejoin:round;stroke-miterlimit:2"
   xml:space="preserve"
   version="1.1"
   viewBox="0 0 52.313 56.375"
   height="56.375"
   width="52.313"><metadata
     id="metadata13"><rdf:RDF><cc:Work
         rdf:about=""><dc:format>image/svg+xml</dc:format><dc:type
           rdf:resource="http://purl.org/dc/dcmitype/StillImage" /></cc:Work></rdf:RDF></metadata><defs
     id="defs11" /><g
     transform="translate(-6.427,-3.256)"
     id="BL"><path
       id="path2"
       style="fill:#bf2e23;fill-opacity:0.5"
       d="m 32.558,3.256 9.084,7.671 -5.4,2.059 -0.99,3.01 6.348,2.073 2.546,-2.169 1.236,-5.063 4.657,5.598 -4.803,3.388 2.65,4.572 4.499,-1.754 1.791,-2.924 4.564,4.645 -5.739,2.318 -4.375,1.436 2.834,6.963 5.547,6.113 -0.37,6.591 -12.564,-8.359 0.585,3.808 6.367,5.305 -1.783,6.581 -7.704,-6.378 -2.034,-2.764 -6.92,1.78 -6.921,-1.78 -2.034,2.764 -7.704,6.378 -1.783,-6.581 6.367,-5.305 0.586,-3.808 -12.565,8.359 -0.37,-6.591 5.547,-6.113 2.835,-6.963 -4.376,-1.436 -5.739,-2.318 4.564,-4.645 1.791,2.924 4.499,1.754 2.65,-4.572 -4.803,-3.388 4.657,-5.598 1.236,5.063 2.546,2.169 6.348,-2.073 -0.99,-3.01 -5.4,-2.059 z" /><path
       id="path4"
       style="fill:#bf2e23"
       d="m 32.584,13.153 15.681,5.988 6.861,13.705 -6.74,6.54 -6.5,-3.317 -0.048,7.823 -7.078,-1.62 -0.457,7.496 5.657,0.831 -7.29,8.822 v 0.21 l -0.086,-0.105 -0.087,0.105 v -0.21 l -7.29,-8.822 5.658,-0.831 -0.458,-7.496 -7.077,1.62 -0.048,-7.823 -6.5,3.317 -6.741,-6.54 6.861,-13.705 z m -0.087,20.669 -4.375,3.646 4.334,2.923 m 0,0 4.589,-2.923 -4.548,-3.646 m -10.827,-8.979 8.263,5.681 -5.354,3.023 -6.317,-0.731 z m 21.827,0 -8.262,5.681 5.354,3.023 6.317,-0.731 z m -11,-3.719 -3.219,3.719 3.143,2.233 m 0,0 3.468,-2.233 -3.392,-3.719" /></g></svg>