<?xml version="1.0" encoding="UTF-8" standalone="no"?>
<svg
   xmlns:dc="http://purl.org/dc/elements/1.1/"
   xmlns:cc="http://creativecommons.org/ns#"
   xmlns:rdf="http://www.w3.org/1999/02/22-rdf-syntax-ns#"
   xmlns:svg="http://www.w3.org/2000/svg"
   xmlns="http://www.w3.org/2000/svg"
   id="svg7"
   style="clip-rule:evenodd;fill-rule:evenodd;stroke-linejoin:round;stroke-miterlimit:2"
   xml:space="preserve"
   version="1.1"
   viewBox="0 0 52.313595 53.77676"
   height="53.77676"
   width="52.313595"><metadata
     id="metadata13"><rdf:RDF><cc:Work
         rdf:about=""><dc:format>image/svg+xml</dc:format><dc:type
           rdf:resource="http://purl.org/dc/dcmitype/StillImage" /></cc:Work></rdf:RDF></metadata><defs
     id="defs11" /><g
     transform="translate(-6.1557028,-5.6042506)"
     id="VG"><path
       id="path2"
       style="fill:#4d8dda;fill-opacity:0.5"
       d="m 25.963,10.45 c 0,0 4.198,-3.454 5.665,-4.66 0.292,-0.241 0.712,-0.248 1.012,-0.018 1.336,1.022 4.897,3.753 6.022,4.678 0.368,0.303 0.459,0.804 0.219,1.203 -0.256,0.424 -0.572,0.949 -0.768,1.275 -0.123,0.203 -0.288,0.382 -0.485,0.525 -0.723,0.526 -2.508,1.823 -2.508,1.823 l 1.669,1.511 c 0,0 3.37,-2.263 5.349,-3.591 0.357,-0.24 0.806,-0.33 1.237,-0.249 0.432,0.081 0.808,0.326 1.038,0.676 1.534,2.377 4.845,7.195 7.627,9.284 1.41,0.566 4.108,1.212 5.526,1.534 0.182,0.042 0.324,0.173 0.371,0.342 0.047,0.169 -0.009,0.348 -0.146,0.467 -1.345,1.169 -4.263,3.704 -5.38,4.674 -0.11,0.095 -0.169,0.231 -0.159,0.371 0.009,0.14 0.085,0.268 0.207,0.351 0.437,0.295 1.067,0.72 1.469,0.991 0.249,0.168 0.558,0.24 0.863,0.202 0.704,-0.087 2.053,-0.255 3.068,-0.382 0.218,-0.027 0.431,0.071 0.539,0.249 0.109,0.177 0.092,0.397 -0.044,0.558 -0.85,1.008 -2.188,2.596 -3.154,3.742 -0.724,0.859 -1.918,1.247 -3.059,0.996 -2.135,-0.47 -5.337,-1.175 -5.337,-1.175 l -7.435,10.05 c 0,0 -0.451,1.365 0.903,5.463 0.12,0.398 -0.012,0.825 -0.34,1.103 -3.503,2.98 -6.211,5.738 -7.193,6.765 -0.104,0.11 -0.249,0.173 -0.401,0.173 -0.152,10e-4 -0.297,-0.061 -0.402,-0.171 -0.994,-1.023 -3.737,-3.784 -7.244,-6.767 -0.328,-0.278 -0.459,-0.705 -0.34,-1.103 1.355,-4.098 0.904,-5.463 0.904,-5.463 L 17.82,35.827 c 0,0 -3.201,0.705 -5.336,1.175 C 11.343,37.253 10.149,36.865 9.425,36.006 8.459,34.86 7.12,33.272 6.271,32.264 6.135,32.103 6.118,31.883 6.227,31.706 6.335,31.528 6.548,31.43 6.765,31.457 c 1.016,0.127 2.364,0.295 3.069,0.382 0.305,0.038 0.614,-0.034 0.863,-0.202 0.402,-0.271 1.031,-0.696 1.469,-0.991 0.122,-0.083 0.198,-0.211 0.207,-0.351 0.009,-0.14 -0.049,-0.276 -0.159,-0.371 -1.117,-0.97 -4.036,-3.505 -5.38,-4.674 -0.137,-0.119 -0.193,-0.298 -0.146,-0.467 0.047,-0.169 0.189,-0.3 0.371,-0.342 1.418,-0.322 4.116,-0.968 5.526,-1.534 2.782,-2.089 6.092,-6.907 7.627,-9.284 0.23,-0.35 0.606,-0.595 1.037,-0.676 0.432,-0.081 0.881,0.009 1.238,0.249 1.979,1.328 5.349,3.591 5.349,3.591 l 1.669,-1.511 c 0,0 -1.785,-1.297 -2.508,-1.823 C 26.799,13.31 26.635,13.131 26.512,12.928 26.316,12.602 26,12.077 25.744,11.653 c -0.24,-0.399 -0.149,-0.9 0.219,-1.203 z" /><path
       id="path4"
       style="fill:#4d8dda"
       d="m 29.711,14.815 c 1.714,-0.374 3.489,-0.374 5.203,0 1.165,0.254 2.28,0.498 2.28,0.498 0.184,0.073 0.359,0.163 0.524,0.267 0.622,0.394 2.239,1.417 2.868,1.815 0.167,0.105 0.364,0.161 0.565,0.161 0.231,0 0.56,0 0.867,0 0.521,0 0.999,0.27 1.241,0.699 0.979,1.742 3.508,6.24 4.353,7.742 0.162,0.289 0.084,0.645 -0.188,0.851 -0.628,0.476 -1.717,1.302 -2.177,1.65 -0.132,0.101 -0.196,0.26 -0.167,0.417 0.15,0.807 0.615,3.311 0.776,4.178 0.037,0.197 0.117,0.385 0.234,0.553 0.565,0.803 2.328,3.307 3.214,4.565 0.307,0.437 0.266,1.011 -0.101,1.406 -1.394,1.501 -4.657,5.013 -4.657,5.013 0,0 -1.864,2.482 -2.554,3.4 -0.166,0.222 -0.386,0.403 -0.642,0.529 -0.918,0.454 -3.247,1.606 -4.698,2.323 -0.269,0.133 -0.592,0.129 -0.857,-0.009 -0.266,-0.139 -0.437,-0.394 -0.455,-0.677 -0.214,-3.341 -0.777,-12.16 -0.93,-14.56 -0.024,-0.382 0.151,-0.753 0.471,-0.994 1.286,-0.972 4.625,-3.492 5.526,-4.172 0.141,-0.107 0.217,-0.273 0.202,-0.442 -0.048,-0.551 -0.161,-1.832 -0.246,-2.805 -0.023,-0.255 -0.19,-0.48 -0.438,-0.59 -0.248,-0.111 -0.541,-0.089 -0.768,0.055 -1.143,0.727 -4.066,1.762 -4.066,1.762 l -2.779,0.31 c 0,0 -2.778,-0.31 -2.778,-0.31 0,0 -2.924,-1.035 -4.066,-1.762 -0.227,-0.144 -0.52,-0.166 -0.768,-0.055 -0.249,0.11 -0.415,0.335 -0.438,0.59 -0.085,0.973 -0.198,2.254 -0.247,2.805 -0.014,0.169 0.061,0.335 0.203,0.442 0.901,0.68 4.24,3.2 5.526,4.172 0.32,0.241 0.495,0.612 0.47,0.994 -0.153,2.4 -0.716,11.219 -0.929,14.56 -0.018,0.283 -0.189,0.538 -0.455,0.677 -0.265,0.138 -0.588,0.142 -0.857,0.009 -1.451,-0.717 -3.78,-1.869 -4.698,-2.323 -0.256,-0.126 -0.476,-0.307 -0.642,-0.529 -0.69,-0.918 -2.555,-3.4 -2.555,-3.4 0,0 -3.262,-3.512 -4.657,-5.013 -0.367,-0.395 -0.408,-0.969 -0.1,-1.406 0.886,-1.258 2.648,-3.762 3.213,-4.565 0.118,-0.168 0.198,-0.356 0.235,-0.553 0.161,-0.867 0.626,-3.371 0.776,-4.178 0.029,-0.157 -0.035,-0.316 -0.167,-0.417 -0.46,-0.348 -1.55,-1.174 -2.177,-1.65 -0.272,-0.206 -0.35,-0.562 -0.188,-0.851 0.845,-1.502 3.374,-6 4.353,-7.742 0.242,-0.429 0.719,-0.699 1.241,-0.699 0.307,0 0.635,0 0.867,0 0.201,0 0.398,-0.056 0.564,-0.161 0.63,-0.398 2.247,-1.421 2.869,-1.815 0.165,-0.104 0.34,-0.194 0.524,-0.267 0,0 1.115,-0.244 2.28,-0.498 z" /></g></svg>